<?xml version="1.0" encoding="UTF-8"?>
<!DOCTYPE svg PUBLIC "-//W3C//DTD SVG 1.1//EN" "http://www.w3.org/Graphics/SVG/1.1/DTD/svg11.dtd">
<svg xmlns="http://www.w3.org/2000/svg" version="1.1" width="1024px" height="765px" style="shape-rendering:geometricPrecision; text-rendering:geometricPrecision; image-rendering:optimizeQuality; fill-rule:evenodd; clip-rule:evenodd" xmlns:xlink="http://www.w3.org/1999/xlink">
<g><path style="opacity:0.961" fill="#fe0000" d="M -0.5,0.5 C -0.5,0.166667 -0.5,-0.166667 -0.5,-0.5C 340.833,-0.5 682.167,-0.5 1023.5,-0.5C 1023.5,254.5 1023.5,509.5 1023.5,764.5C 1022.5,764.5 1021.5,764.5 1020.5,764.5C 1020.5,509.833 1020.5,255.167 1020.5,0.5C 680.167,0.5 339.833,0.5 -0.5,0.5 Z"/></g>
<g><path style="opacity:1" fill="#daf1f6" d="M -0.5,0.5 C 339.833,0.5 680.167,0.5 1020.5,0.5C 1020.5,255.167 1020.5,509.833 1020.5,764.5C 680.167,764.5 339.833,764.5 -0.5,764.5C -0.5,509.833 -0.5,255.167 -0.5,0.5 Z"/></g>
<g><path style="opacity:1" fill="#24408f" d="M 630.5,252.5 C 630.611,253.117 630.944,253.617 631.5,254C 630.263,254.232 629.263,254.732 628.5,255.5C 628.369,256.376 628.702,257.043 629.5,257.5C 641.666,261.234 653.999,264.401 666.5,267C 676.279,270.148 685.946,273.482 695.5,277C 686.617,275.952 677.617,275.285 668.5,275C 664.575,273.519 660.575,272.353 656.5,271.5C 652.453,272.513 648.453,273.346 644.5,274C 632.928,271.476 621.595,268.143 610.5,264C 610.034,262.701 610.034,261.201 610.5,259.5C 608.396,259.799 606.396,259.466 604.5,258.5C 608.452,257.506 612.452,256.84 616.5,256.5C 616.461,253.465 615.461,250.798 613.5,248.5C 615.273,247.686 615.773,246.352 615,244.5C 610.667,238.833 606.333,233.167 602,227.5C 602.506,220.67 599.339,216.837 592.5,216C 578.254,199.419 562.921,183.752 546.5,169C 544.275,168.439 542.275,167.439 540.5,166C 512.561,163.503 484.561,162.336 456.5,162.5C 389.566,162.566 322.899,166.733 256.5,175C 248.372,176.042 240.372,177.709 232.5,180C 225.793,182.89 222.293,188.057 222,195.5C 215.399,223.44 212.232,251.773 212.5,280.5C 223.172,280.667 233.839,280.5 244.5,280C 308.521,274.554 372.521,268.887 436.5,263C 460.484,261.168 484.484,259.668 508.5,258.5C 509.568,259.434 510.901,259.768 512.5,259.5C 520.99,260.33 529.657,260.83 538.5,261C 537.619,261.708 536.953,262.542 536.5,263.5C 534.868,263.825 533.868,264.825 533.5,266.5C 534.465,268.329 535.465,270.162 536.5,272C 535.288,274.923 533.955,277.756 532.5,280.5C 528.427,280.78 525.427,282.613 523.5,286C 523.777,287.892 524.777,289.225 526.5,290C 529.167,290.667 531.833,290.667 534.5,290C 545.446,282.721 556.112,275.054 566.5,267C 568.037,265.89 568.703,264.39 568.5,262.5C 563.43,262.075 558.43,261.241 553.5,260C 561.093,258.884 568.759,258.384 576.5,258.5C 583.167,258.667 589.833,258.833 596.5,259C 597.573,260.25 597.573,261.584 596.5,263C 593.153,266.68 589.487,270.013 585.5,273C 574.328,279.086 562.995,284.92 551.5,290.5C 549.952,290.821 549.285,291.821 549.5,293.5C 548.5,293.5 547.5,293.5 546.5,293.5C 544.144,292.425 541.811,292.425 539.5,293.5C 540.309,295.071 540.643,296.738 540.5,298.5C 493.656,305.23 446.656,310.897 399.5,315.5C 399.977,316.478 400.643,317.311 401.5,318C 437.805,333.992 474.138,349.659 510.5,365C 514.988,366.811 519.654,367.811 524.5,368C 586.693,369.133 648.693,368.299 710.5,365.5C 711.833,365.5 713.167,365.5 714.5,365.5C 715.492,365.672 716.158,365.338 716.5,364.5C 739.468,358.565 762.135,351.732 784.5,344C 793.291,338.795 802.624,335.295 812.5,333.5C 813.776,336.336 814.442,339.336 814.5,342.5C 813.596,343.209 813.263,344.209 813.5,345.5C 821.352,345.825 829.018,345.492 836.5,344.5C 847.167,343.5 857.834,342.5 868.5,341.5C 872.226,341.823 875.893,341.489 879.5,340.5C 880.246,339.264 880.579,337.93 880.5,336.5C 881.833,336.5 883.167,336.5 884.5,336.5C 888.514,336.666 892.514,336.499 896.5,336C 897.624,335.751 898.624,335.251 899.5,334.5C 860.013,320.615 820.346,307.449 780.5,295C 764.724,289.907 748.724,285.74 732.5,282.5C 731.07,281.463 729.403,280.796 727.5,280.5C 728.919,279.549 730.585,279.216 732.5,279.5C 788.497,291.231 843.997,305.231 899,321.5C 899.5,321.167 900,320.833 900.5,320.5C 900.185,318.517 899.185,317.184 897.5,316.5C 898.5,315.833 899.5,315.167 900.5,314.5C 903.85,314.335 907.183,314.502 910.5,315C 912.833,316 914.5,317.667 915.5,320C 926.162,324.391 936.829,328.891 947.5,333.5C 950.854,336.188 953.854,339.188 956.5,342.5C 958.952,364.774 959.119,387.107 957,409.5C 954.251,410.351 951.584,411.351 949,412.5C 946.79,411.978 944.623,411.312 942.5,410.5C 939.628,412.094 938.961,411.427 940.5,408.5C 942.858,406.871 945.524,405.705 948.5,405C 949.46,403.581 950.293,402.081 951,400.5C 952.214,393.892 953.047,387.225 953.5,380.5C 954.656,372.677 954.823,364.677 954,356.5C 952.066,353.312 949.232,351.812 945.5,352C 936.58,351.032 927.913,352.032 919.5,355C 917,356.833 914.833,359 913,361.5C 911.84,366.453 911.007,371.453 910.5,376.5C 909.341,387.326 909.174,398.326 910,409.5C 910.692,410.025 911.192,410.692 911.5,411.5C 918.655,412.167 925.655,412.833 932.5,413.5C 907.718,418.957 882.718,424.124 857.5,429C 856.276,431.39 855.776,433.89 856,436.5C 856.725,437.059 857.558,437.392 858.5,437.5C 887.538,430.899 916.705,424.899 946,419.5C 947.167,419.833 948.333,420.167 949.5,420.5C 948.826,423.6 946.993,425.6 944,426.5C 939.208,425.414 934.375,425.247 929.5,426C 919.567,428.976 909.901,432.476 900.5,436.5C 895.316,434.65 889.982,434.15 884.5,435C 873.942,439.13 863.275,442.964 852.5,446.5C 851.833,446.333 851.167,446.167 850.5,446C 852.872,444.529 852.872,443.363 850.5,442.5C 847.918,443.411 845.918,445.077 844.5,447.5C 807.537,458.112 770.203,467.945 732.5,477C 674.038,486.308 615.371,494.308 556.5,501C 549.78,501.269 543.113,500.769 536.5,499.5C 536.884,501.665 536.217,503.332 534.5,504.5C 533.534,502.604 533.201,500.604 533.5,498.5C 532.167,498.5 530.833,498.5 529.5,498.5C 529.326,500.861 528.993,503.194 528.5,505.5C 529.833,505.5 531.167,505.5 532.5,505.5C 532.383,507.484 533.05,509.15 534.5,510.5C 527.266,512.349 519.933,512.849 512.5,512C 506.498,507.735 499.831,506.402 492.5,508C 478.807,509.568 465.473,512.568 452.5,517C 448.174,516.907 443.841,516.907 439.5,517C 438.488,520.672 436.155,522.005 432.5,521C 435.435,518.144 434.935,516.311 431,515.5C 419.112,517.277 407.445,519.944 396,523.5C 385.938,520.445 386.105,517.945 396.5,516C 443.662,508.709 490.829,501.543 538,494.5C 538.725,492.843 538.225,491.843 536.5,491.5C 535.167,490.833 533.833,490.167 532.5,489.5C 534.279,485.599 532.946,483.932 528.5,484.5C 484.423,491.382 440.423,498.549 396.5,506C 386.079,506.89 375.745,506.39 365.5,504.5C 365.679,506.954 365.013,509.121 363.5,511C 365.514,512.678 367.681,514.178 370,515.5C 370.897,518.49 371.731,521.49 372.5,524.5C 374.856,526.69 377.356,528.69 380,530.5C 380.273,532.329 381.107,533.829 382.5,535C 394.217,535.44 405.883,534.773 417.5,533C 439.888,529.91 462.222,526.577 484.5,523C 492.147,521.751 499.814,521.085 507.5,521C 508.864,534.651 506.697,547.817 501,560.5C 497.428,561.979 495.594,564.646 495.5,568.5C 505.002,569.623 511.835,565.956 516,557.5C 517.055,561.634 516.222,565.301 513.5,568.5C 509.979,571.092 506.312,573.425 502.5,575.5C 506.795,576.661 511.129,576.828 515.5,576C 517.941,573.347 518.941,570.18 518.5,566.5C 517.439,551.845 517.272,537.178 518,522.5C 519.848,520.321 522.015,518.487 524.5,517C 531.505,516.67 538.171,515.17 544.5,512.5C 607.942,504.82 671.275,496.653 734.5,488C 750.72,483.474 767.054,479.807 783.5,477C 783.546,481.093 783.213,485.26 782.5,489.5C 780.289,490.123 778.289,491.123 776.5,492.5C 779.089,493.205 781.756,493.205 784.5,492.5C 784.719,493.675 784.386,494.675 783.5,495.5C 781.115,496.661 778.781,497.661 776.5,498.5C 775.681,495.695 775.181,492.695 775,489.5C 774.107,488.919 773.107,488.585 772,488.5C 758.795,492.92 745.628,496.586 732.5,499.5C 717.078,501.687 701.745,504.52 686.5,508C 685.915,509.302 685.249,510.469 684.5,511.5C 684.44,510.957 684.107,510.624 683.5,510.5C 682.852,518.589 681.685,526.589 680,534.5C 677.781,536.72 675.281,538.553 672.5,540C 636.728,545.819 600.728,549.486 564.5,551C 547.296,553.273 547.296,554.273 564.5,554C 598.604,551.486 632.604,548.153 666.5,544C 673.327,543.096 678.66,539.93 682.5,534.5C 683.497,541.134 683.83,547.8 683.5,554.5C 683.33,555.822 683.663,556.989 684.5,558C 687.167,558.667 689.833,558.667 692.5,558C 717.537,552.158 742.537,546.158 767.5,540C 768.931,539.535 770.097,538.701 771,537.5C 772.217,531.899 772.717,526.232 772.5,520.5C 799.46,514.189 825.793,505.856 851.5,495.5C 861.697,486.753 865.364,475.753 862.5,462.5C 861.726,468.911 860.559,475.245 859,481.5C 857.414,486.959 854.081,490.959 849,493.5C 824.646,503.952 799.479,511.785 773.5,517C 774.328,516.085 775.328,515.419 776.5,515C 800.629,509.474 823.963,501.808 846.5,492C 854.969,486.396 858.969,478.396 858.5,468C 858.167,466.5 857.833,465 857.5,463.5C 856.35,470.68 854.517,477.68 852,484.5C 850.457,486.378 848.624,487.878 846.5,489C 841.706,489.347 837.04,490.18 832.5,491.5C 832.5,491.167 832.5,490.833 832.5,490.5C 835.541,489.755 838.207,488.422 840.5,486.5C 840.5,485.833 840.5,485.167 840.5,484.5C 843.342,483.746 846.009,482.412 848.5,480.5C 847.833,480.167 847.167,479.833 846.5,479.5C 837.438,482.799 828.271,485.799 819,488.5C 818.5,488.167 818,487.833 817.5,487.5C 826.721,483.484 836.221,480.151 846,477.5C 846.5,477.167 847,476.833 847.5,476.5C 846.667,476.167 845.833,475.833 845,475.5C 835.785,478.311 826.619,481.311 817.5,484.5C 817.5,483.5 817.5,482.5 817.5,481.5C 828.889,478.371 840.222,475.037 851.5,471.5C 849.926,470.369 848.259,470.202 846.5,471C 836.904,474.144 827.237,476.977 817.5,479.5C 817.5,478.167 817.5,476.833 817.5,475.5C 829.448,472.629 841.448,469.963 853.5,467.5C 853.5,466.5 853.5,465.5 853.5,464.5C 846.03,465.869 838.696,467.536 831.5,469.5C 831.515,464.981 833.848,462.481 838.5,462C 849.288,459.736 859.954,457.069 870.5,454C 876.486,452.388 882.486,452.222 888.5,453.5C 888.831,460.863 888.497,468.197 887.5,475.5C 885.102,478.199 882.102,479.533 878.5,479.5C 878.5,480.833 878.5,482.167 878.5,483.5C 882.015,482.957 885.348,481.957 888.5,480.5C 888.5,486.833 888.5,493.167 888.5,499.5C 889.833,499.5 891.167,499.5 892.5,499.5C 892.5,487.833 892.5,476.167 892.5,464.5C 893.166,461.311 893.833,457.977 894.5,454.5C 895.417,455.127 896.417,455.461 897.5,455.5C 902.093,457.144 906.759,458.81 911.5,460.5C 911.167,474.183 911.501,487.85 912.5,501.5C 913.167,487.5 913.833,473.5 914.5,459.5C 916.432,458.634 918.432,457.967 920.5,457.5C 927.618,459.394 929.285,457.061 925.5,450.5C 926.488,447.218 927.154,443.885 927.5,440.5C 941.273,438.14 954.94,435.306 968.5,432C 969.337,430.989 969.67,429.822 969.5,428.5C 970.434,429.568 970.768,430.901 970.5,432.5C 968.536,449.265 961.203,463.098 948.5,474C 941.173,475.788 934.007,477.954 927,480.5C 926.667,488.167 926.333,495.833 926,503.5C 923.749,505.377 921.249,506.877 918.5,508C 905.577,509.914 892.577,510.914 879.5,511C 850.824,521.116 822.157,531.449 793.5,542C 758.668,553.411 723.334,563.078 687.5,571C 602.89,586.576 517.557,595.742 431.5,598.5C 422.457,598.571 413.457,598.071 404.5,597C 396.735,594.283 389.402,590.783 382.5,586.5C 380.971,586.529 379.804,587.196 379,588.5C 377.424,595.287 375.424,601.954 373,608.5C 371.533,611.266 369.7,613.766 367.5,616C 359.171,620.997 350.171,623.997 340.5,625C 318.288,628.793 299.122,622.959 283,607.5C 273.395,595.212 266.395,581.545 262,566.5C 257.221,548.774 254.055,530.774 252.5,512.5C 252.663,510.143 252.497,507.81 252,505.5C 251.617,504.944 251.117,504.611 250.5,504.5C 215.225,472.07 180.225,438.903 145.5,405C 143.866,404.506 142.199,404.34 140.5,404.5C 139.53,407.661 137.863,410.494 135.5,413C 124.042,416.213 112.375,417.213 100.5,416C 98.3333,414.5 96.5,412.667 95,410.5C 91.1252,402.209 88.4585,393.542 87,384.5C 85.2327,368.551 84.2327,352.551 84,336.5C 71.9397,323.343 61.1064,309.343 51.5,294.5C 51.3505,293.448 51.5172,292.448 52,291.5C 55.131,293.166 56.631,292.166 56.5,288.5C 56.1583,286.133 55.6583,283.8 55,281.5C 54.6174,280.944 54.1174,280.611 53.5,280.5C 52.5,280.5 51.5,280.5 50.5,280.5C 50.5,275.167 50.5,269.833 50.5,264.5C 49.5,264.5 48.5,264.5 47.5,264.5C 47.5,265.5 47.5,266.5 47.5,267.5C 46.5386,265.735 46.2053,263.735 46.5,261.5C 47.1368,256.147 47.9701,250.814 49,245.5C 52.5724,237.356 56.4057,229.356 60.5,221.5C 75.5254,221.728 90.5254,221.228 105.5,220C 107.949,219.275 110.283,218.275 112.5,217C 125.517,200.989 138.85,185.323 152.5,170C 156.5,167 160.5,164 164.5,161C 172.308,158.048 180.308,155.714 188.5,154C 202.527,152.145 216.527,150.145 230.5,148C 269.847,145.916 309.181,143.582 348.5,141C 393.925,139.594 439.259,140.927 484.5,145C 504.279,147.262 522.946,152.928 540.5,162C 560.159,177.992 578.159,195.659 594.5,215C 602.081,216.254 605.581,220.754 605,228.5C 609.333,234.167 613.667,239.833 618,245.5C 622.275,247.719 626.441,250.052 630.5,252.5 Z"/></g>
<g><path style="opacity:1" fill="#244090" d="M 516.5,167.5 C 493.822,167.31 471.155,167.643 448.5,168.5C 448.34,170.199 448.506,171.866 449,173.5C 454.798,187.559 459.798,201.893 464,216.5C 466.603,221.329 470.103,225.329 474.5,228.5C 484.745,222.585 495.411,221.918 506.5,226.5C 509.673,228.587 513.006,230.421 516.5,232C 526.22,233.342 535.887,235.009 545.5,237C 564.214,237.036 582.88,237.869 601.5,239.5C 602.5,239.167 603.5,238.833 604.5,238.5C 598.984,231.24 593.651,223.906 588.5,216.5C 591.77,218.101 594.437,220.434 596.5,223.5C 597.194,226.088 598.36,228.421 600,230.5C 604.022,235.021 607.856,239.688 611.5,244.5C 610.975,245.192 610.308,245.692 609.5,246C 604.981,246.175 600.647,246.675 596.5,247.5C 559.37,251.157 522.037,254.157 484.5,256.5C 395.862,263.915 307.195,270.915 218.5,277.5C 218.988,247.252 223.155,217.586 231,188.5C 232.167,187.333 233.333,186.167 234.5,185C 248.325,181.377 262.325,178.71 276.5,177C 356.393,167.282 436.393,164.115 516.5,167.5 Z"/></g>
<g><path style="opacity:1" fill="#70c3de" d="M 613.5,248.5 C 608.025,247.511 602.358,247.178 596.5,247.5C 600.647,246.675 604.981,246.175 609.5,246C 610.308,245.692 610.975,245.192 611.5,244.5C 607.856,239.688 604.022,235.021 600,230.5C 598.36,228.421 597.194,226.088 596.5,223.5C 594.437,220.434 591.77,218.101 588.5,216.5C 582.625,208.281 575.958,200.615 568.5,193.5C 562.382,187.037 555.715,181.371 548.5,176.5C 546.379,173.55 543.713,171.05 540.5,169C 532.541,167.836 524.541,167.336 516.5,167.5C 436.393,164.115 356.393,167.282 276.5,177C 262.325,178.71 248.325,181.377 234.5,185C 233.333,186.167 232.167,187.333 231,188.5C 223.155,217.586 218.988,247.252 218.5,277.5C 307.195,270.915 395.862,263.915 484.5,256.5C 492.5,257.167 500.5,257.833 508.5,258.5C 484.484,259.668 460.484,261.168 436.5,263C 372.521,268.887 308.521,274.554 244.5,280C 233.839,280.5 223.172,280.667 212.5,280.5C 212.232,251.773 215.399,223.44 222,195.5C 222.293,188.057 225.793,182.89 232.5,180C 240.372,177.709 248.372,176.042 256.5,175C 322.899,166.733 389.566,162.566 456.5,162.5C 484.561,162.336 512.561,163.503 540.5,166C 542.275,167.439 544.275,168.439 546.5,169C 562.921,183.752 578.254,199.419 592.5,216C 599.339,216.837 602.506,220.67 602,227.5C 606.333,233.167 610.667,238.833 615,244.5C 615.773,246.352 615.273,247.686 613.5,248.5 Z"/></g>
<g><path style="opacity:1" fill="#9cd6e9" d="M 364.5,213.5 C 374.833,213.5 385.167,213.5 395.5,213.5C 395.076,216.354 394.076,219.021 392.5,221.5C 362.833,223.708 333.166,225.542 303.5,227C 301.011,223.841 299.344,220.341 298.5,216.5C 320.66,215.571 342.66,214.571 364.5,213.5 Z"/></g>
<g><path style="opacity:1" fill="#71c1dd" d="M 404.5,171.5 C 406.39,171.297 407.89,171.963 409,173.5C 410.122,178.102 410.622,182.768 410.5,187.5C 415.511,187.334 420.511,187.501 425.5,188C 427.604,189.836 427.938,192.002 426.5,194.5C 425.614,193.675 425.281,192.675 425.5,191.5C 420.537,190.504 415.537,190.337 410.5,191C 409.13,192.441 408.13,194.108 407.5,196C 406.552,196.483 405.552,196.649 404.5,196.5C 405.03,188.089 405.03,179.756 404.5,171.5 Z"/></g>
<g><path style="opacity:1" fill="#28518e" d="M 548.5,176.5 C 555.715,181.371 562.382,187.037 568.5,193.5C 575.958,200.615 582.625,208.281 588.5,216.5C 579.139,206.636 569.472,196.803 559.5,187C 556.537,185.039 553.871,182.706 551.5,180C 550.552,179.517 549.552,179.351 548.5,179.5C 548.5,178.5 548.5,177.5 548.5,176.5 Z"/></g>
<g><path style="opacity:1" fill="#9dd9e9" d="M 368.5,172.5 C 378.506,172.334 388.506,172.5 398.5,173C 402.073,177.889 403.74,183.389 403.5,189.5C 394.806,189.491 386.139,189.991 377.5,191C 375.28,194.101 374.947,197.435 376.5,201C 384.493,201.5 392.493,201.666 400.5,201.5C 400.78,204.272 400.113,206.772 398.5,209C 363.182,210.791 327.849,211.791 292.5,212C 288.353,208.951 283.687,207.284 278.5,207C 265.73,205.978 253.063,206.645 240.5,209C 236.928,210.569 233.928,212.902 231.5,216C 230.552,216.483 229.552,216.649 228.5,216.5C 229.582,207.005 231.415,197.672 234,188.5C 234.75,187.874 235.584,187.374 236.5,187C 251.038,183.89 265.705,181.557 280.5,180C 310.014,177.825 339.347,175.325 368.5,172.5 Z"/></g>
<g><path style="opacity:1" fill="#4d78ab" d="M 516.5,167.5 C 524.541,167.336 532.541,167.836 540.5,169C 543.713,171.05 546.379,173.55 548.5,176.5C 545.213,175.736 542.546,173.903 540.5,171C 532.329,170.023 524.329,168.856 516.5,167.5 Z"/></g>
<g><path style="opacity:1" fill="#9ddae9" d="M 516.5,167.5 C 524.329,168.856 532.329,170.023 540.5,171C 542.546,173.903 545.213,175.736 548.5,176.5C 548.5,177.5 548.5,178.5 548.5,179.5C 549.552,179.351 550.552,179.517 551.5,180C 553.871,182.706 556.537,185.039 559.5,187C 569.472,196.803 579.139,206.636 588.5,216.5C 593.651,223.906 598.984,231.24 604.5,238.5C 603.5,238.833 602.5,239.167 601.5,239.5C 582.88,237.869 564.214,237.036 545.5,237C 535.887,235.009 526.22,233.342 516.5,232C 513.006,230.421 509.673,228.587 506.5,226.5C 495.411,221.918 484.745,222.585 474.5,228.5C 470.103,225.329 466.603,221.329 464,216.5C 459.798,201.893 454.798,187.559 449,173.5C 448.506,171.866 448.34,170.199 448.5,168.5C 471.155,167.643 493.822,167.31 516.5,167.5 Z"/></g>
<g><path style="opacity:1" fill="#67a0d2" d="M 111.5,225.5 C 114.383,224.73 117.05,225.563 119.5,228C 121.134,228.494 122.801,228.66 124.5,228.5C 124.5,229.5 124.5,230.5 124.5,231.5C 120.084,229.794 115.751,227.794 111.5,225.5 Z"/></g>
<g><path style="opacity:1" fill="#9ad3e7" d="M 203.5,281.5 C 203.5,275.833 203.5,270.167 203.5,264.5C 204.02,254.446 205.02,244.446 206.5,234.5C 185.023,235.178 163.69,237.178 142.5,240.5C 142.268,236.02 142.935,231.687 144.5,227.5C 165.799,225.338 187.132,223.505 208.5,222C 209.337,220.989 209.67,219.822 209.5,218.5C 188.483,219.586 167.483,220.919 146.5,222.5C 146.5,221.5 146.5,220.5 146.5,219.5C 167.473,218.094 188.473,217.094 209.5,216.5C 211.155,208.592 212.155,200.592 212.5,192.5C 214.589,187.407 214.922,182.074 213.5,176.5C 203.536,171.138 192.869,169.138 181.5,170.5C 167.531,168.242 156.697,172.909 149,184.5C 144.333,195.167 139.667,205.833 135,216.5C 132.447,222.99 130.613,229.657 129.5,236.5C 128.167,236.5 126.833,236.5 125.5,236.5C 127.014,229.782 128.847,223.115 131,216.5C 136.804,203.427 142.804,190.427 149,177.5C 157.565,169.088 167.899,165.421 180,166.5C 192.339,166.071 204.173,168.238 215.5,173C 216.333,173.833 217.167,174.667 218,175.5C 218.667,179.167 218.667,182.833 218,186.5C 212.848,217.712 208.515,249.046 205,280.5C 204.617,281.056 204.117,281.389 203.5,281.5 Z"/></g>
<g><path style="opacity:1" fill="#9dd9e9" d="M 212.5,192.5 C 210.343,198.925 208.676,205.592 207.5,212.5C 187.852,214.374 168.185,216.041 148.5,217.5C 150,204.694 154.333,192.861 161.5,182C 163.246,181.529 164.913,180.862 166.5,180C 181.883,179.191 197.216,179.691 212.5,181.5C 212.5,185.167 212.5,188.833 212.5,192.5 Z"/></g>
<g><path style="opacity:1" fill="#96cce4" d="M 484.5,226.5 C 492.764,225.846 500.764,226.846 508.5,229.5C 508.5,230.5 508.5,231.5 508.5,232.5C 498.81,232.832 489.144,232.498 479.5,231.5C 480.882,229.451 482.548,227.785 484.5,226.5 Z"/></g>
<g><path style="opacity:1" fill="#90bce5" d="M 148.5,248.5 C 145.619,247.726 142.952,246.393 140.5,244.5C 141.365,243.417 142.365,243.251 143.5,244C 145.24,245.517 146.906,247.017 148.5,248.5 Z"/></g>
<g><path style="opacity:1" fill="#355795" d="M 630.5,252.5 C 653.887,257.839 677.22,263.172 700.5,268.5C 676.371,264.8 652.371,260.467 628.5,255.5C 629.263,254.732 630.263,254.232 631.5,254C 630.944,253.617 630.611,253.117 630.5,252.5 Z"/></g>
<g><path style="opacity:1" fill="#5392bf" d="M 512.5,259.5 C 521.5,259.5 530.5,259.5 539.5,259.5C 539.912,261.973 538.912,263.306 536.5,263.5C 536.953,262.542 537.619,261.708 538.5,261C 529.657,260.83 520.99,260.33 512.5,259.5 Z"/></g>
<g><path style="opacity:1" fill="#72cce0" d="M 596.5,247.5 C 602.358,247.178 608.025,247.511 613.5,248.5C 615.461,250.798 616.461,253.465 616.5,256.5C 612.452,256.84 608.452,257.506 604.5,258.5C 606.396,259.466 608.396,259.799 610.5,259.5C 610.034,261.201 610.034,262.701 610.5,264C 621.595,268.143 632.928,271.476 644.5,274C 648.453,273.346 652.453,272.513 656.5,271.5C 660.575,272.353 664.575,273.519 668.5,275C 677.617,275.285 686.617,275.952 695.5,277C 685.946,273.482 676.279,270.148 666.5,267C 653.999,264.401 641.666,261.234 629.5,257.5C 628.702,257.043 628.369,256.376 628.5,255.5C 652.371,260.467 676.371,264.8 700.5,268.5C 700.5,268.833 700.5,269.167 700.5,269.5C 702.597,271.482 705.264,272.482 708.5,272.5C 708.5,274.5 708.5,276.5 708.5,278.5C 711.833,278.5 715.167,278.5 718.5,278.5C 721.5,279.167 724.5,279.833 727.5,280.5C 729.403,280.796 731.07,281.463 732.5,282.5C 732.414,283.496 732.748,284.329 733.5,285C 729.61,285.241 725.777,284.741 722,283.5C 720.381,282.623 719.215,281.623 718.5,280.5C 715.217,281.327 711.884,281.66 708.5,281.5C 708.5,282.5 708.5,283.5 708.5,284.5C 709.5,284.5 710.5,284.5 711.5,284.5C 715.945,285.195 720.278,286.362 724.5,288C 727.146,288.497 729.813,288.664 732.5,288.5C 769.872,300.012 807.205,311.845 844.5,324C 855.299,328.989 866.299,333.489 877.5,337.5C 877.833,337.833 878.167,338.167 878.5,338.5C 875.047,339.513 871.713,340.513 868.5,341.5C 857.834,342.5 847.167,343.5 836.5,344.5C 828.757,345.13 821.424,344.463 814.5,342.5C 814.442,339.336 813.776,336.336 812.5,333.5C 802.624,335.295 793.291,338.795 784.5,344C 762.135,351.732 739.468,358.565 716.5,364.5C 715.751,363.469 715.085,362.302 714.5,361C 715.167,360.667 715.833,360.333 716.5,360C 714.024,357.863 714.024,355.697 716.5,353.5C 717.562,352.425 717.562,351.425 716.5,350.5C 715.378,351.63 714.044,352.297 712.5,352.5C 710.623,352.1 709.123,351.1 708,349.5C 706.493,350.555 704.993,351.555 703.5,352.5C 703.167,352.5 702.833,352.5 702.5,352.5C 702.5,349.833 702.5,347.167 702.5,344.5C 700.278,344.178 698.444,344.845 697,346.5C 696.692,345.692 696.192,345.025 695.5,344.5C 694.353,346.765 694.186,349.098 695,351.5C 695.333,350.833 695.667,350.167 696,349.5C 697.188,350.563 697.688,351.897 697.5,353.5C 695.833,353.5 694.167,353.5 692.5,353.5C 679.962,348.952 667.629,343.952 655.5,338.5C 654.167,339.167 654.167,339.833 655.5,340.5C 671.857,347.493 688.19,354.326 704.5,361C 707.177,361.814 709.177,363.314 710.5,365.5C 648.693,368.299 586.693,369.133 524.5,368C 519.654,367.811 514.988,366.811 510.5,365C 474.138,349.659 437.805,333.992 401.5,318C 400.643,317.311 399.977,316.478 399.5,315.5C 446.656,310.897 493.656,305.23 540.5,298.5C 540.643,296.738 540.309,295.071 539.5,293.5C 541.811,292.425 544.144,292.425 546.5,293.5C 579.515,306.954 612.515,320.621 645.5,334.5C 646.833,333.833 646.833,333.167 645.5,332.5C 614.271,319.384 582.937,306.551 551.5,294C 550.316,292.855 550.316,291.688 551.5,290.5C 562.995,284.92 574.328,279.086 585.5,273C 589.487,270.013 593.153,266.68 596.5,263C 597.573,261.584 597.573,260.25 596.5,259C 589.833,258.833 583.167,258.667 576.5,258.5C 568.759,258.384 561.093,258.884 553.5,260C 558.43,261.241 563.43,262.075 568.5,262.5C 568.703,264.39 568.037,265.89 566.5,267C 556.112,275.054 545.446,282.721 534.5,290C 531.833,290.667 529.167,290.667 526.5,290C 524.777,289.225 523.777,287.892 523.5,286C 525.427,282.613 528.427,280.78 532.5,280.5C 533.955,277.756 535.288,274.923 536.5,272C 535.465,270.162 534.465,268.329 533.5,266.5C 533.868,264.825 534.868,263.825 536.5,263.5C 538.912,263.306 539.912,261.973 539.5,259.5C 530.5,259.5 521.5,259.5 512.5,259.5C 510.901,259.768 509.568,259.434 508.5,258.5C 500.5,257.833 492.5,257.167 484.5,256.5C 522.037,254.157 559.37,251.157 596.5,247.5 Z"/></g>
<g><path style="opacity:1" fill="#72c3df" d="M 121.5,266.5 C 124.5,266.5 127.5,266.5 130.5,266.5C 129.987,268.29 129.487,269.956 129,271.5C 131.8,272.125 134.634,272.792 137.5,273.5C 136.473,275.024 134.973,275.691 133,275.5C 129.591,275.048 126.424,273.881 123.5,272C 121.845,270.556 121.178,268.722 121.5,266.5 Z"/></g>
<g><path style="opacity:1" fill="#92bfe5" d="M 148.5,248.5 C 166.244,258.544 183.91,268.878 201.5,279.5C 202.167,274.349 202.834,269.349 203.5,264.5C 203.5,270.167 203.5,275.833 203.5,281.5C 185.039,272.054 167.039,261.721 149.5,250.5C 148.702,250.043 148.369,249.376 148.5,248.5 Z"/></g>
<g><path style="opacity:1" fill="#325694" d="M 700.5,269.5 C 700.5,269.167 700.5,268.833 700.5,268.5C 746.264,277.317 791.598,287.651 836.5,299.5C 791.14,289.716 745.807,279.716 700.5,269.5 Z"/></g>
<g><path style="opacity:1" fill="#376ca1" d="M 732.5,279.5 C 730.585,279.216 728.919,279.549 727.5,280.5C 724.5,279.833 721.5,279.167 718.5,278.5C 715.788,277.641 713.122,276.475 710.5,275C 711,274.833 711.5,274.667 712,274.5C 718.835,276.751 725.668,278.418 732.5,279.5 Z"/></g>
<g><path style="opacity:1" fill="#72c9e0" d="M 53.5,280.5 C 54.3242,283.764 54.6576,287.098 54.5,290.5C 52.8333,290.5 51.1667,290.5 49.5,290.5C 47.7425,282.982 47.0759,275.315 47.5,267.5C 47.5,266.5 47.5,265.5 47.5,264.5C 48.5,264.5 49.5,264.5 50.5,264.5C 50.5,269.833 50.5,275.167 50.5,280.5C 51.5,280.5 52.5,280.5 53.5,280.5 Z"/></g>
<g><path style="opacity:1" fill="#34639d" d="M 732.5,288.5 C 729.813,288.664 727.146,288.497 724.5,288C 720.278,286.362 715.945,285.195 711.5,284.5C 709.946,283.105 710.279,282.439 712.5,282.5C 719.48,283.905 726.146,285.905 732.5,288.5 Z"/></g>
<g><path style="opacity:1" fill="#365594" d="M 46.5,261.5 C 46.2053,263.735 46.5386,265.735 47.5,267.5C 47.0759,275.315 47.7425,282.982 49.5,290.5C 51.1667,290.5 52.8333,290.5 54.5,290.5C 54.6576,287.098 54.3242,283.764 53.5,280.5C 54.1174,280.611 54.6174,280.944 55,281.5C 55.6583,283.8 56.1583,286.133 56.5,288.5C 56.631,292.166 55.131,293.166 52,291.5C 51.5172,292.448 51.3505,293.448 51.5,294.5C 47.865,290.702 46.0317,286.036 46,280.5C 45.18,273.986 45.3467,267.653 46.5,261.5 Z"/></g>
<g><path style="opacity:1" fill="#71c6e0" d="M 732.5,282.5 C 748.724,285.74 764.724,289.907 780.5,295C 820.346,307.449 860.013,320.615 899.5,334.5C 898.624,335.251 897.624,335.751 896.5,336C 892.514,336.499 888.514,336.666 884.5,336.5C 861.704,328.291 839.038,319.791 816.5,311C 791.779,304.319 767.112,297.319 742.5,290C 739.207,289.174 735.874,288.674 732.5,288.5C 726.146,285.905 719.48,283.905 712.5,282.5C 710.279,282.439 709.946,283.105 711.5,284.5C 710.5,284.5 709.5,284.5 708.5,284.5C 708.5,283.5 708.5,282.5 708.5,281.5C 711.884,281.66 715.217,281.327 718.5,280.5C 719.215,281.623 720.381,282.623 722,283.5C 725.777,284.741 729.61,285.241 733.5,285C 732.748,284.329 732.414,283.496 732.5,282.5 Z"/></g>
<g><path style="opacity:1" fill="#70c2de" d="M 700.5,269.5 C 745.807,279.716 791.14,289.716 836.5,299.5C 856.39,305.896 876.723,311.562 897.5,316.5C 899.185,317.184 900.185,318.517 900.5,320.5C 900,320.833 899.5,321.167 899,321.5C 843.997,305.231 788.497,291.231 732.5,279.5C 725.668,278.418 718.835,276.751 712,274.5C 711.5,274.667 711,274.833 710.5,275C 713.122,276.475 715.788,277.641 718.5,278.5C 715.167,278.5 711.833,278.5 708.5,278.5C 708.5,276.5 708.5,274.5 708.5,272.5C 705.264,272.482 702.597,271.482 700.5,269.5 Z"/></g>
<g><path style="opacity:1" fill="#72cae0" d="M 146.5,256.5 C 149.647,256.737 152.647,257.57 155.5,259C 170.802,267.319 186.135,275.652 201.5,284C 205.902,286.264 206.402,289.097 203,292.5C 202.333,293.5 202.333,294.5 203,295.5C 205.344,291.383 208.511,290.55 212.5,293C 229.432,301.098 245.765,310.265 261.5,320.5C 262.386,321.325 262.719,322.325 262.5,323.5C 260.396,323.201 258.396,323.534 256.5,324.5C 267.129,333.954 277.962,343.288 289,352.5C 289.749,353.635 289.583,354.635 288.5,355.5C 276.688,348.426 265.022,341.093 253.5,333.5C 252.479,334.002 252.312,334.668 253,335.5C 274.917,350.594 296.084,366.594 316.5,383.5C 321.628,386.46 326.628,389.627 331.5,393C 332.765,394.337 333.265,395.837 333,397.5C 327.709,395.035 322.543,392.368 317.5,389.5C 274.669,359.445 232.002,329.445 189.5,299.5C 188.614,298.675 188.281,297.675 188.5,296.5C 187.448,296.649 186.448,296.483 185.5,296C 173.071,284.579 160.904,273.079 149,261.5C 147.906,259.922 147.072,258.255 146.5,256.5 Z"/></g>
<g><path style="opacity:1" fill="#395e99" d="M 836.5,299.5 C 857.856,304.51 879.189,309.51 900.5,314.5C 899.5,315.167 898.5,315.833 897.5,316.5C 876.723,311.562 856.39,305.896 836.5,299.5 Z"/></g>
<g><path style="opacity:1" fill="#639bd1" d="M 119.5,299.5 C 122.671,300.006 125.004,301.672 126.5,304.5C 133.553,310.22 140.887,315.553 148.5,320.5C 145.777,319.648 143.11,318.481 140.5,317C 134.006,312.252 127.339,307.752 120.5,303.5C 119.571,302.311 119.238,300.978 119.5,299.5 Z"/></g>
<g><path style="opacity:1" fill="#6fbfde" d="M 901.5,315.5 C 906.848,315.079 911.181,316.912 914.5,321C 927.53,326.428 926.53,328.428 911.5,327C 910.563,322.063 907.563,319.063 902.5,318C 901.748,317.329 901.414,316.496 901.5,315.5 Z"/></g>
<g><path style="opacity:1" fill="#274f90" d="M 551.5,290.5 C 550.316,291.688 550.316,292.855 551.5,294C 582.937,306.551 614.271,319.384 645.5,332.5C 646.833,333.167 646.833,333.833 645.5,334.5C 612.515,320.621 579.515,306.954 546.5,293.5C 547.5,293.5 548.5,293.5 549.5,293.5C 549.285,291.821 549.952,290.821 551.5,290.5 Z"/></g>
<g><path style="opacity:1" fill="#284a90" d="M 732.5,288.5 C 735.874,288.674 739.207,289.174 742.5,290C 767.112,297.319 791.779,304.319 816.5,311C 839.038,319.791 861.704,328.291 884.5,336.5C 883.167,336.5 881.833,336.5 880.5,336.5C 880.579,337.93 880.246,339.264 879.5,340.5C 875.893,341.489 872.226,341.823 868.5,341.5C 871.713,340.513 875.047,339.513 878.5,338.5C 878.167,338.167 877.833,337.833 877.5,337.5C 866.299,333.489 855.299,328.989 844.5,324C 807.205,311.845 769.872,300.012 732.5,288.5 Z"/></g>
<g><path style="opacity:1" fill="#6daedf" d="M 148.5,320.5 C 156.852,325.34 164.852,330.673 172.5,336.5C 167.507,334.251 162.674,331.584 158,328.5C 154.476,326.17 151.31,323.503 148.5,320.5 Z"/></g>
<g><path style="opacity:1" fill="#72cbe0" d="M 407.5,366.5 C 389.909,354.471 371.576,343.304 352.5,333C 350.382,331.951 348.716,330.451 347.5,328.5C 361.217,327.577 374.884,325.91 388.5,323.5C 387.166,320.645 385.166,318.145 382.5,316C 377.42,312.376 372.253,308.876 367,305.5C 366.568,304.4 367.068,303.733 368.5,303.5C 369.167,303.667 369.833,303.833 370.5,304C 402.468,321.282 433.801,339.282 464.5,358C 467.713,358.606 470.713,359.773 473.5,361.5C 474.386,362.325 474.719,363.325 474.5,364.5C 465.186,363.516 455.852,363.349 446.5,364C 443.358,365.45 441.692,367.95 441.5,371.5C 439.271,372.577 436.937,373.244 434.5,373.5C 435.921,379.113 433.921,381.28 428.5,380C 421.132,375.988 414.132,371.488 407.5,366.5 Z"/></g>
<g><path style="opacity:1" fill="#71c0dd" d="M 922.5,328.5 C 925.898,328.18 929.232,328.513 932.5,329.5C 938.909,331.744 938.909,332.91 932.5,333C 929.751,331.916 926.918,331.083 924,330.5C 922.97,330.164 922.47,329.497 922.5,328.5 Z"/></g>
<g><path style="opacity:1" fill="#72cbe0" d="M 406.5,368.5 C 410.665,371.833 414.665,375.333 418.5,379C 415.223,381.272 412.223,383.939 409.5,387C 406.422,387.087 404.088,388.421 402.5,391C 404.509,392.823 405.843,394.99 406.5,397.5C 405.127,397.657 403.793,397.49 402.5,397C 400.874,394.372 398.874,392.039 396.5,390C 368.226,368.697 338.226,350.197 306.5,334.5C 306.5,333.167 306.5,331.833 306.5,330.5C 307.5,330.5 308.5,330.5 309.5,330.5C 321.14,329.42 332.807,329.254 344.5,330C 365.899,341.949 386.566,354.782 406.5,368.5 Z"/></g>
<g><path style="opacity:1" fill="#6eafdb" d="M 172.5,336.5 C 178.336,340.144 184.336,343.644 190.5,347C 192.837,348.634 194.837,350.467 196.5,352.5C 194.692,352.509 193.025,352.009 191.5,351C 184.67,346.611 178.336,341.778 172.5,336.5 Z"/></g>
<g><path style="opacity:1" fill="#284c8f" d="M 704.5,334.5 C 713.57,333.913 717.904,337.913 717.5,346.5C 717.167,346.333 716.833,346.167 716.5,346C 715.745,343.825 714.912,341.659 714,339.5C 712.89,337.963 711.39,337.297 709.5,337.5C 710.509,340.527 710.509,343.527 709.5,346.5C 708.833,343.833 708.167,341.167 707.5,338.5C 705.976,340.483 704.976,342.816 704.5,345.5C 703.096,342.597 703.429,339.93 705.5,337.5C 704.635,336.417 703.635,336.251 702.5,337C 701.213,338.41 700.046,339.91 699,341.5C 699.101,337.89 700.935,335.556 704.5,334.5 Z"/></g>
<g><path style="opacity:1" fill="#5583c2" d="M 814.5,342.5 C 821.424,344.463 828.757,345.13 836.5,344.5C 829.018,345.492 821.352,345.825 813.5,345.5C 813.263,344.209 813.596,343.209 814.5,342.5 Z"/></g>
<g><path style="opacity:1" fill="#28508f" d="M 692.5,353.5 C 699.504,356.286 706.504,359.286 713.5,362.5C 714.386,363.325 714.719,364.325 714.5,365.5C 713.167,365.5 711.833,365.5 710.5,365.5C 709.177,363.314 707.177,361.814 704.5,361C 688.19,354.326 671.857,347.493 655.5,340.5C 654.167,339.833 654.167,339.167 655.5,338.5C 667.629,343.952 679.962,348.952 692.5,353.5 Z"/></g>
<g><path style="opacity:1" fill="#325e9a" d="M 716.5,353.5 C 715.193,354.153 713.86,354.82 712.5,355.5C 711.438,354.575 711.438,353.575 712.5,352.5C 714.044,352.297 715.378,351.63 716.5,350.5C 717.562,351.425 717.562,352.425 716.5,353.5 Z"/></g>
<g><path style="opacity:1" fill="#2a5792" d="M 347.5,328.5 C 348.716,330.451 350.382,331.951 352.5,333C 371.576,343.304 389.909,354.471 407.5,366.5C 406.662,366.842 406.328,367.508 406.5,368.5C 386.566,354.782 365.899,341.949 344.5,330C 332.807,329.254 321.14,329.42 309.5,330.5C 310.263,329.732 311.263,329.232 312.5,329C 324.162,328.5 335.829,328.333 347.5,328.5 Z"/></g>
<g><path style="opacity:1" fill="#6fbbda" d="M 702.5,352.5 C 701.835,350.302 701.168,347.969 700.5,345.5C 699.353,347.765 699.186,350.098 700,352.5C 702.194,354.272 704.194,356.272 706,358.5C 706.667,357.5 706.667,356.5 706,355.5C 704.955,354.627 704.122,353.627 703.5,352.5C 704.993,351.555 706.493,350.555 708,349.5C 709.123,351.1 710.623,352.1 712.5,352.5C 711.438,353.575 711.438,354.575 712.5,355.5C 713.86,354.82 715.193,354.153 716.5,353.5C 714.024,355.697 714.024,357.863 716.5,360C 715.833,360.333 715.167,360.667 714.5,361C 715.085,362.302 715.751,363.469 716.5,364.5C 716.158,365.338 715.492,365.672 714.5,365.5C 714.719,364.325 714.386,363.325 713.5,362.5C 706.504,359.286 699.504,356.286 692.5,353.5C 694.167,353.5 695.833,353.5 697.5,353.5C 697.688,351.897 697.188,350.563 696,349.5C 695.667,350.167 695.333,350.833 695,351.5C 694.186,349.098 694.353,346.765 695.5,344.5C 696.192,345.025 696.692,345.692 697,346.5C 698.444,344.845 700.278,344.178 702.5,344.5C 702.5,347.167 702.5,349.833 702.5,352.5 Z"/></g>
<g><path style="opacity:1" fill="#24428a" d="M 702.5,352.5 C 702.833,352.5 703.167,352.5 703.5,352.5C 704.122,353.627 704.955,354.627 706,355.5C 706.667,356.5 706.667,357.5 706,358.5C 704.194,356.272 702.194,354.272 700,352.5C 699.186,350.098 699.353,347.765 700.5,345.5C 701.168,347.969 701.835,350.302 702.5,352.5 Z"/></g>
<g><path style="opacity:1" fill="#6ebbdc" d="M 953.5,380.5 C 953.649,377.393 953.149,374.393 952,371.5C 951.95,373.744 951.117,375.411 949.5,376.5C 951.173,370.262 951.673,363.929 951,357.5C 949.581,356.54 948.081,355.707 946.5,355C 938.017,353.989 929.684,354.656 921.5,357C 913.551,363.956 911.551,372.122 915.5,381.5C 914.952,383.532 913.619,384.532 911.5,384.5C 911.5,389.833 911.5,395.167 911.5,400.5C 913.415,400.216 915.081,400.549 916.5,401.5C 912.995,401.694 912.662,402.694 915.5,404.5C 914.5,404.5 913.5,404.5 912.5,404.5C 912.5,405.5 912.5,406.5 912.5,407.5C 913.833,407.5 915.167,407.5 916.5,407.5C 917.919,408.451 919.585,408.784 921.5,408.5C 919.928,409.687 918.261,410.687 916.5,411.5C 913.029,410.522 911.195,408.188 911,404.5C 910.5,395.173 910.334,385.839 910.5,376.5C 911.007,371.453 911.84,366.453 913,361.5C 914.833,359 917,356.833 919.5,355C 927.913,352.032 936.58,351.032 945.5,352C 949.232,351.812 952.066,353.312 954,356.5C 954.823,364.677 954.656,372.677 953.5,380.5 Z"/></g>
<g><path style="opacity:1" fill="#264690" d="M 949.5,376.5 C 947.282,379.387 944.282,380.221 940.5,379C 939.732,374.81 938.732,370.644 937.5,366.5C 931.486,359.231 925.319,358.898 919,365.5C 917.533,368.758 916.367,372.092 915.5,375.5C 921.28,373.77 927.28,373.103 933.5,373.5C 933.67,374.822 933.337,375.989 932.5,377C 929.243,377.749 926.576,379.416 924.5,382C 921.924,382.606 919.59,382.106 917.5,380.5C 916.584,380.543 915.917,380.876 915.5,381.5C 911.551,372.122 913.551,363.956 921.5,357C 929.684,354.656 938.017,353.989 946.5,355C 948.081,355.707 949.581,356.54 951,357.5C 951.673,363.929 951.173,370.262 949.5,376.5 Z"/></g>
<g><path style="opacity:1" fill="#69aed6" d="M 196.5,352.5 C 205.243,356.861 213.243,362.194 220.5,368.5C 217.777,367.648 215.11,366.481 212.5,365C 206.657,361.305 201.324,357.138 196.5,352.5 Z"/></g>
<g><path style="opacity:1" fill="#74cae1" d="M 933.5,356.5 C 938.141,357.127 942.807,357.46 947.5,357.5C 945.554,362.672 944.221,368.005 943.5,373.5C 942.5,373.5 941.5,373.5 940.5,373.5C 940.665,370.482 940.498,367.482 940,364.5C 937.916,361.601 935.749,358.934 933.5,356.5 Z"/></g>
<g><path style="opacity:1" fill="#71c9e0" d="M 383.5,384.5 C 383.714,386.144 383.38,387.644 382.5,389C 380.527,389.495 378.527,389.662 376.5,389.5C 375.62,386.449 373.786,384.116 371,382.5C 370,383.167 369,383.833 368,384.5C 362.639,382.809 357.473,380.642 352.5,378C 327.167,362 301.833,346 276.5,330C 293.063,333.942 309.063,339.608 324.5,347C 344.914,358.528 364.581,371.028 383.5,384.5 Z"/></g>
<g><path style="opacity:1" fill="#71c3e0" d="M 368.5,453.5 C 365.886,453.723 364.219,452.556 363.5,450C 361.595,448.579 359.595,447.412 357.5,446.5C 331.666,431.527 305.666,416.694 279.5,402C 228.768,368.974 177.768,336.474 126.5,304.5C 125.004,301.672 122.671,300.006 119.5,299.5C 97.3418,284.863 75.0084,270.363 52.5,256C 51.6634,254.989 51.33,253.822 51.5,252.5C 55.8956,254.359 60.2289,256.526 64.5,259C 136.358,306.882 208.692,353.882 281.5,400C 310.499,415.813 339.166,432.313 367.5,449.5C 368.246,450.736 368.579,452.07 368.5,453.5 Z"/></g>
<g><path style="opacity:1" fill="#407fab" d="M 856.5,374.5 C 851.489,374.334 846.489,374.501 841.5,375C 823.82,378.39 806.153,381.557 788.5,384.5C 806.847,379.752 825.513,375.919 844.5,373C 848.167,372.333 851.833,372.333 855.5,373C 856.056,373.383 856.389,373.883 856.5,374.5 Z"/></g>
<g><path style="opacity:1" fill="#25468d" d="M 126.5,304.5 C 177.768,336.474 228.768,368.974 279.5,402C 305.666,416.694 331.666,431.527 357.5,446.5C 359.031,447.925 358.698,448.591 356.5,448.5C 332.81,434.654 308.81,421.32 284.5,408.5C 282.837,406.467 280.837,404.634 278.5,403C 260.032,391.93 241.699,380.597 223.5,369C 222.552,368.517 221.552,368.351 220.5,368.5C 213.243,362.194 205.243,356.861 196.5,352.5C 194.837,350.467 192.837,348.634 190.5,347C 184.336,343.644 178.336,340.144 172.5,336.5C 164.852,330.673 156.852,325.34 148.5,320.5C 140.887,315.553 133.553,310.22 126.5,304.5 Z"/></g>
<g><path style="opacity:1" fill="#4b86b8" d="M 383.5,384.5 C 384.434,385.568 384.768,386.901 384.5,388.5C 386.38,388.229 387.713,388.896 388.5,390.5C 385.868,388.937 383.535,389.27 381.5,391.5C 379.833,390.833 378.167,390.167 376.5,389.5C 378.527,389.662 380.527,389.495 382.5,389C 383.38,387.644 383.714,386.144 383.5,384.5 Z"/></g>
<g><path style="opacity:1" fill="#294792" d="M 842.5,384.5 C 846.925,383.81 850.759,384.81 854,387.5C 854.5,395.493 854.666,403.493 854.5,411.5C 853.833,405.167 853.167,398.833 852.5,392.5C 853.401,388.759 852.068,386.759 848.5,386.5C 848.5,397.167 848.5,407.833 848.5,418.5C 847.833,420.5 847.167,422.5 846.5,424.5C 802.935,434.305 759.601,444.805 716.5,456C 663.253,462.977 609.92,469.311 556.5,475C 552.129,475.828 547.795,475.661 543.5,474.5C 598.433,467.425 653.433,460.925 708.5,455C 754.455,444.594 800.121,433.427 845.5,421.5C 844.667,421.167 843.833,420.833 843,420.5C 798.025,430.619 753.192,441.452 708.5,453C 653.518,459.248 598.518,465.414 543.5,471.5C 543.5,470.5 543.5,469.5 543.5,468.5C 601.285,463.139 658.951,456.639 716.5,449C 759.987,438.628 803.32,427.961 846.5,417C 846,416.5 845.5,416 845,415.5C 802.129,425.61 759.296,436.11 716.5,447C 661.845,453.384 607.179,459.717 552.5,466C 549.118,466.824 545.784,466.657 542.5,465.5C 543.5,465.167 544.5,464.833 545.5,464.5C 602.424,457.083 659.424,450.249 716.5,444C 759.183,433.987 801.849,423.987 844.5,414C 844.957,413.586 845.291,413.086 845.5,412.5C 844.311,411.571 842.978,411.238 841.5,411.5C 842.718,410.839 844.051,410.172 845.5,409.5C 842.572,408.516 839.572,408.183 836.5,408.5C 839.529,406.661 842.862,405.327 846.5,404.5C 845.667,404.167 844.833,403.833 844,403.5C 799.408,412.9 754.908,422.733 710.5,433C 655.866,439.163 601.199,444.996 546.5,450.5C 545.167,450.167 543.833,449.833 542.5,449.5C 544.423,448.692 546.423,448.192 548.5,448C 572.544,445.828 596.544,443.328 620.5,440.5C 649.805,437.003 679.138,433.837 708.5,431C 753.986,421.403 799.319,411.237 844.5,400.5C 843.5,400.167 842.5,399.833 841.5,399.5C 798.674,408.374 756.007,417.874 713.5,428C 679.624,431.297 645.958,435.131 612.5,439.5C 591.102,440.842 569.768,442.842 548.5,445.5C 541.866,445.323 541.866,444.823 548.5,444C 604.517,437.664 660.517,431.331 716.5,425C 756.355,415.703 796.355,407.036 836.5,399C 839.908,398.343 842.908,397.177 845.5,395.5C 845.5,392.167 845.5,388.833 845.5,385.5C 844.209,385.737 843.209,385.404 842.5,384.5 Z"/></g>
<g><path style="opacity:1" fill="#69acd7" d="M 220.5,368.5 C 221.552,368.351 222.552,368.517 223.5,369C 241.699,380.597 260.032,391.93 278.5,403C 280.837,404.634 282.837,406.467 284.5,408.5C 282.692,408.509 281.025,408.009 279.5,407C 264.898,397.121 249.898,387.787 234.5,379C 229.518,375.702 224.852,372.202 220.5,368.5 Z"/></g>
<g><path style="opacity:1" fill="#71c9df" d="M 949.5,376.5 C 951.117,375.411 951.95,373.744 952,371.5C 953.149,374.393 953.649,377.393 953.5,380.5C 953.047,387.225 952.214,393.892 951,400.5C 950.293,402.081 949.46,403.581 948.5,405C 945.524,405.705 942.858,406.871 940.5,408.5C 932.592,410.155 924.592,411.155 916.5,411.5C 918.261,410.687 919.928,409.687 921.5,408.5C 924.649,408.789 927.649,408.289 930.5,407C 925.648,406.185 920.981,406.352 916.5,407.5C 915.167,407.5 913.833,407.5 912.5,407.5C 912.5,406.5 912.5,405.5 912.5,404.5C 913.5,404.5 914.5,404.5 915.5,404.5C 929.424,404.068 937.591,397.068 940,383.5C 938.069,387.04 935.902,390.374 933.5,393.5C 924.868,392.082 924.534,392.748 932.5,395.5C 928.23,400.3 922.897,402.3 916.5,401.5C 915.081,400.549 913.415,400.216 911.5,400.5C 911.5,395.167 911.5,389.833 911.5,384.5C 913.619,384.532 914.952,383.532 915.5,381.5C 915.917,380.876 916.584,380.543 917.5,380.5C 919.59,382.106 921.924,382.606 924.5,382C 926.576,379.416 929.243,377.749 932.5,377C 933.337,375.989 933.67,374.822 933.5,373.5C 927.28,373.103 921.28,373.77 915.5,375.5C 916.367,372.092 917.533,368.758 919,365.5C 925.319,358.898 931.486,359.231 937.5,366.5C 938.732,370.644 939.732,374.81 940.5,379C 944.282,380.221 947.282,379.387 949.5,376.5 Z"/></g>
<g><path style="opacity:1" fill="#30719c" d="M 740.5,393.5 C 733.433,395.796 726.099,397.463 718.5,398.5C 718.158,397.662 717.492,397.328 716.5,397.5C 724.267,395.569 732.267,394.236 740.5,393.5 Z"/></g>
<g><path style="opacity:1" fill="#6bbfdb" d="M 388.5,390.5 C 390.811,393.147 393.144,395.814 395.5,398.5C 395,399.881 394,400.547 392.5,400.5C 388.892,399.181 385.225,398.014 381.5,397C 380.248,395.172 380.248,393.339 381.5,391.5C 383.535,389.27 385.868,388.937 388.5,390.5 Z"/></g>
<g><path style="opacity:1" fill="#70c2de" d="M 860.5,378.5 C 858.616,377.661 857.283,376.328 856.5,374.5C 856.389,373.883 856.056,373.383 855.5,373C 851.833,372.333 848.167,372.333 844.5,373C 825.513,375.919 806.847,379.752 788.5,384.5C 772.85,388.739 756.85,391.739 740.5,393.5C 732.267,394.236 724.267,395.569 716.5,397.5C 664.971,402.712 613.471,408.378 562,414.5C 560.624,414.316 559.791,413.649 559.5,412.5C 616.984,405.213 674.65,398.379 732.5,392C 770.99,383.53 809.656,376.03 848.5,369.5C 851.226,369.682 853.893,370.182 856.5,371C 857.986,373.475 859.319,375.975 860.5,378.5 Z"/></g>
<g><path style="opacity:1" fill="#2d5096" d="M 842.5,384.5 C 843.209,385.404 844.209,385.737 845.5,385.5C 845.5,388.833 845.5,392.167 845.5,395.5C 840.734,395.598 836.067,396.264 831.5,397.5C 830.791,396.596 829.791,396.263 828.5,396.5C 833.632,394.714 838.965,393.214 844.5,392C 841.833,391.333 839.167,391.333 836.5,392C 807.046,397.696 777.713,404.03 748.5,411C 745.854,411.497 743.187,411.664 740.5,411.5C 769.386,404.119 798.72,397.619 828.5,392C 833.934,390.809 839.267,389.309 844.5,387.5C 843.833,387.167 843.167,386.833 842.5,386.5C 801.823,395.336 761.157,404.17 720.5,413C 665.686,418.854 611.02,424.688 556.5,430.5C 554.396,430.799 552.396,430.466 550.5,429.5C 553.753,428.402 557.086,427.736 560.5,427.5C 560.5,426.5 560.5,425.5 560.5,424.5C 559.127,424.657 557.793,424.49 556.5,424C 569.587,420.865 582.921,419.365 596.5,419.5C 586.177,421.335 575.51,422.835 564.5,424C 563.692,424.308 563.025,424.808 562.5,425.5C 564.167,425.833 565.833,426.167 567.5,426.5C 617.217,421.872 666.884,416.705 716.5,411C 758.617,402.743 800.617,393.91 842.5,384.5 Z"/></g>
<g><path style="opacity:1" fill="#72cae0" d="M 856.5,374.5 C 857.283,376.328 858.616,377.661 860.5,378.5C 860.666,388.506 860.5,398.506 860,408.5C 859.936,415.45 858.769,422.117 856.5,428.5C 855.167,428.5 853.833,428.5 852.5,428.5C 852.5,427.5 852.5,426.5 852.5,425.5C 853.167,420.833 853.833,416.167 854.5,411.5C 854.666,403.493 854.5,395.493 854,387.5C 850.759,384.81 846.925,383.81 842.5,384.5C 800.617,393.91 758.617,402.743 716.5,411C 666.884,416.705 617.217,421.872 567.5,426.5C 565.833,426.167 564.167,425.833 562.5,425.5C 563.025,424.808 563.692,424.308 564.5,424C 575.51,422.835 586.177,421.335 596.5,419.5C 582.921,419.365 569.587,420.865 556.5,424C 557.793,424.49 559.127,424.657 560.5,424.5C 560.5,425.5 560.5,426.5 560.5,427.5C 557.086,427.736 553.753,428.402 550.5,429.5C 552.396,430.466 554.396,430.799 556.5,430.5C 560.042,430.187 563.375,430.521 566.5,431.5C 560.552,432.602 554.552,433.269 548.5,433.5C 545.579,433.146 543.246,434.146 541.5,436.5C 540.386,435.277 540.219,433.944 541,432.5C 544.246,428.523 548.413,426.023 553.5,425C 547.305,424.097 542.638,426.431 539.5,432C 533.394,432.718 531.894,430.218 535,424.5C 536.543,422.622 538.376,421.122 540.5,420C 546.714,418.124 553.048,416.957 559.5,416.5C 559.833,421.833 560.167,421.833 560.5,416.5C 613.188,410.664 665.854,404.664 718.5,398.5C 726.099,397.463 733.433,395.796 740.5,393.5C 756.85,391.739 772.85,388.739 788.5,384.5C 806.153,381.557 823.82,378.39 841.5,375C 846.489,374.501 851.489,374.334 856.5,374.5 Z"/></g>
<g><path style="opacity:1" fill="#2d5696" d="M 596.5,419.5 C 598.658,417.78 601.325,416.947 604.5,417C 645.835,412.718 687.168,408.384 728.5,404C 768.3,394.884 808.3,386.717 848.5,379.5C 852.268,379.304 855.268,380.637 857.5,383.5C 857.167,383.833 856.833,384.167 856.5,384.5C 851.584,381.584 846.251,380.751 840.5,382C 799.3,391.091 757.966,399.757 716.5,408C 676.458,411.505 636.458,415.339 596.5,419.5 Z"/></g>
<g><path style="opacity:1" fill="#6fc3de" d="M 884.5,358.5 C 892.132,357.764 899.465,358.764 906.5,361.5C 907,362.5 907.5,363.5 908,364.5C 909.021,378.259 908.354,391.926 906,405.5C 904.567,410.598 901.4,414.098 896.5,416C 891.817,417.335 887.15,418.669 882.5,420C 877.5,420.667 872.5,420.667 867.5,420C 865.035,416.566 863.535,412.733 863,408.5C 862.085,396.442 862.419,384.442 864,372.5C 865.783,369.382 867.95,366.549 870.5,364C 875.237,361.715 879.904,359.882 884.5,358.5 Z"/></g>
<g><path style="opacity:1" fill="#2c5393" d="M 893.5,376.5 C 894.045,381.527 895.045,386.527 896.5,391.5C 895.504,391.414 894.671,391.748 894,392.5C 892.56,398.047 890.06,403.047 886.5,407.5C 884.657,409.605 882.324,410.772 879.5,411C 875.459,411.827 871.459,411.66 867.5,410.5C 880.706,411.247 888.706,405.247 891.5,392.5C 892.451,391.081 892.784,389.415 892.5,387.5C 893.482,384.038 893.815,380.371 893.5,376.5 Z"/></g>
<g><path style="opacity:1" fill="#22458b" d="M 880.5,401.5 C 881.873,401.343 883.207,401.51 884.5,402C 884.167,402.333 883.833,402.667 883.5,403C 879.525,404.528 875.525,405.694 871.5,406.5C 871.18,403.102 871.513,399.768 872.5,396.5C 873.221,398.686 873.887,400.853 874.5,403C 876.881,403.738 878.881,403.238 880.5,401.5 Z"/></g>
<g><path style="opacity:1" fill="#71cede" d="M 892.5,387.5 C 892.784,389.415 892.451,391.081 891.5,392.5C 889.784,393.574 888.784,395.241 888.5,397.5C 885.999,399.376 883.332,400.709 880.5,401.5C 878.833,401.5 877.167,401.5 875.5,401.5C 876.161,396.832 874.161,394.832 869.5,395.5C 869.411,398.709 869.744,401.875 870.5,405C 870.085,408.106 869.085,408.272 867.5,405.5C 866.686,407.766 866.186,410.1 866,412.5C 865.667,412.167 865.333,411.833 865,411.5C 864.524,403.797 864.191,396.131 864,388.5C 865.044,389.623 865.71,390.956 866,392.5C 867,390.5 868,388.5 869,386.5C 870.011,385.663 871.178,385.33 872.5,385.5C 872.5,387.833 872.5,390.167 872.5,392.5C 873.959,392.567 875.292,392.234 876.5,391.5C 879.738,390.367 883.071,389.533 886.5,389C 888.037,387.89 888.703,386.39 888.5,384.5C 889.833,384.5 891.167,384.5 892.5,384.5C 892.5,385.5 892.5,386.5 892.5,387.5 Z"/></g>
<g><path style="opacity:1" fill="#253f8f" d="M 896.5,391.5 C 895.045,386.527 894.045,381.527 893.5,376.5C 890.493,368.661 884.826,365.495 876.5,367C 872.974,369.026 870.307,371.859 868.5,375.5C 871.881,377.12 874.547,376.287 876.5,373C 887.391,371.398 888.057,372.898 878.5,377.5C 881.428,378.484 884.428,378.817 887.5,378.5C 887.799,380.604 887.466,382.604 886.5,384.5C 883.1,386.856 879.767,389.189 876.5,391.5C 875.292,392.234 873.959,392.567 872.5,392.5C 872.5,390.167 872.5,387.833 872.5,385.5C 869.371,383.956 867.205,384.956 866,388.5C 862.995,373.107 869.162,364.273 884.5,362C 890.917,361.13 897.251,361.464 903.5,363C 904,363.5 904.5,364 905,364.5C 905.642,376.514 905.476,388.514 904.5,400.5C 902.833,400.5 901.167,400.5 899.5,400.5C 899.095,397.285 898.095,394.285 896.5,391.5 Z"/></g>
<g><path style="opacity:1" fill="#70c4de" d="M 893.5,376.5 C 893.815,380.371 893.482,384.038 892.5,387.5C 892.5,386.5 892.5,385.5 892.5,384.5C 891.167,384.5 889.833,384.5 888.5,384.5C 888.703,386.39 888.037,387.89 886.5,389C 883.071,389.533 879.738,390.367 876.5,391.5C 879.767,389.189 883.1,386.856 886.5,384.5C 887.466,382.604 887.799,380.604 887.5,378.5C 884.428,378.817 881.428,378.484 878.5,377.5C 888.057,372.898 887.391,371.398 876.5,373C 874.547,376.287 871.881,377.12 868.5,375.5C 870.307,371.859 872.974,369.026 876.5,367C 884.826,365.495 890.493,368.661 893.5,376.5 Z"/></g>
<g><path style="opacity:1" fill="#73cce2" d="M 889.5,365.5 C 892.304,364.362 895.304,364.195 898.5,365C 896.978,366.522 895.478,368.022 894,369.5C 891.993,368.656 890.493,367.323 889.5,365.5 Z"/></g>
<g><path style="opacity:1" fill="#2f609b" d="M 716.5,397.5 C 717.492,397.328 718.158,397.662 718.5,398.5C 665.854,404.664 613.188,410.664 560.5,416.5C 560.167,421.833 559.833,421.833 559.5,416.5C 553.048,416.957 546.714,418.124 540.5,420C 538.376,421.122 536.543,422.622 535,424.5C 531.894,430.218 533.394,432.718 539.5,432C 542.638,426.431 547.305,424.097 553.5,425C 548.413,426.023 544.246,428.523 541,432.5C 540.219,433.944 540.386,435.277 541.5,436.5C 543.246,434.146 545.579,433.146 548.5,433.5C 547.737,434.268 546.737,434.768 545.5,435C 546.448,435.483 547.448,435.649 548.5,435.5C 542.296,437.328 542.296,438.328 548.5,438.5C 546.469,438.972 544.802,439.972 543.5,441.5C 543.167,441.5 542.833,441.5 542.5,441.5C 542.5,440.5 542.5,439.5 542.5,438.5C 540.821,438.285 539.821,438.952 539.5,440.5C 538.833,438.833 538.167,437.167 537.5,435.5C 536.833,435.167 536.167,434.833 535.5,434.5C 534.791,433.596 533.791,433.263 532.5,433.5C 532.5,449.5 532.5,465.5 532.5,481.5C 531.209,481.737 530.209,481.404 529.5,480.5C 530.831,472.528 531.498,464.194 531.5,455.5C 531.498,446.806 530.831,438.472 529.5,430.5C 529.5,429.833 529.5,429.167 529.5,428.5C 532.218,425.276 535.218,422.109 538.5,419C 544.4,417.239 550.4,415.905 556.5,415C 557.252,414.329 557.586,413.496 557.5,412.5C 558.167,412.5 558.833,412.5 559.5,412.5C 559.791,413.649 560.624,414.316 562,414.5C 613.471,408.378 664.971,402.712 716.5,397.5 Z"/></g>
<g><path style="opacity:1" fill="#2e4b90" d="M 956.5,342.5 C 957.558,343.6 958.392,344.934 959,346.5C 959.333,368.167 959.667,389.833 960,411.5C 965.081,416.91 968.914,423.076 971.5,430C 971.472,431.07 971.139,431.903 970.5,432.5C 970.768,430.901 970.434,429.568 969.5,428.5C 966.229,422.807 962.562,417.307 958.5,412C 949.989,413.167 941.323,413.667 932.5,413.5C 925.655,412.833 918.655,412.167 911.5,411.5C 911.192,410.692 910.692,410.025 910,409.5C 909.174,398.326 909.341,387.326 910.5,376.5C 910.334,385.839 910.5,395.173 911,404.5C 911.195,408.188 913.029,410.522 916.5,411.5C 924.592,411.155 932.592,410.155 940.5,408.5C 938.961,411.427 939.628,412.094 942.5,410.5C 944.623,411.312 946.79,411.978 949,412.5C 951.584,411.351 954.251,410.351 957,409.5C 959.119,387.107 958.952,364.774 956.5,342.5 Z"/></g>
<g><path style="opacity:1" fill="#294f93" d="M 921.5,408.5 C 919.585,408.784 917.919,408.451 916.5,407.5C 920.981,406.352 925.648,406.185 930.5,407C 927.649,408.289 924.649,408.789 921.5,408.5 Z"/></g>
<g><path style="opacity:1" fill="#2c4e93" d="M 915.5,404.5 C 912.662,402.694 912.995,401.694 916.5,401.5C 922.897,402.3 928.23,400.3 932.5,395.5C 924.534,392.748 924.868,392.082 933.5,393.5C 935.902,390.374 938.069,387.04 940,383.5C 937.591,397.068 929.424,404.068 915.5,404.5 Z"/></g>
<g><path style="opacity:1" fill="#2b4c91" d="M 942.5,383.5 C 943.822,383.33 944.989,383.663 946,384.5C 946.822,387.117 947.322,389.784 947.5,392.5C 943.569,390.99 941.903,387.99 942.5,383.5 Z"/></g>
<g><path style="opacity:1" fill="#2b4995" d="M 828.5,396.5 C 829.791,396.263 830.791,396.596 831.5,397.5C 790.489,406.169 749.489,415.002 708.5,424C 653.425,429.26 598.425,435.093 543.5,441.5C 544.802,439.972 546.469,438.972 548.5,438.5C 599.159,433.168 649.826,427.834 700.5,422.5C 743.329,414.468 785.996,405.801 828.5,396.5 Z"/></g>
<g><path style="opacity:1" fill="#284490" d="M 879.5,413.5 C 881.288,413.215 882.955,413.548 884.5,414.5C 880.129,416.565 875.463,417.565 870.5,417.5C 870.5,416.5 870.5,415.5 870.5,414.5C 873.713,414.81 876.713,414.477 879.5,413.5 Z"/></g>
<g><path style="opacity:1" fill="#72c3df" d="M 557.5,412.5 C 557.586,413.496 557.252,414.329 556.5,415C 550.4,415.905 544.4,417.239 538.5,419C 535.218,422.109 532.218,425.276 529.5,428.5C 529.238,423.524 531.238,419.691 535.5,417C 542.506,413.915 549.839,412.415 557.5,412.5 Z"/></g>
<g><path style="opacity:1" fill="#6cbad9" d="M 523.5,440.5 C 522.833,440.5 522.167,440.5 521.5,440.5C 520.823,434.291 518.99,428.291 516,422.5C 515.097,421.299 513.931,420.465 512.5,420C 498.368,418.155 484.701,419.822 471.5,425C 465.527,428.441 462.194,433.608 461.5,440.5C 461.167,440.5 460.833,440.5 460.5,440.5C 459.226,443.174 458.559,446.674 458.5,451C 459.27,458.147 459.603,465.314 459.5,472.5C 457.564,462.053 457.064,451.386 458,440.5C 459.608,435.681 461.608,431.014 464,426.5C 472.526,420.547 482.026,417.38 492.5,417C 513.514,411.208 523.847,419.042 523.5,440.5 Z"/></g>
<g><path style="opacity:1" fill="#2b4a96" d="M 740.5,411.5 C 725.057,416.088 709.057,419.255 692.5,421C 644.531,426.259 596.531,431.093 548.5,435.5C 547.448,435.649 546.448,435.483 545.5,435C 546.737,434.768 547.737,434.268 548.5,433.5C 554.552,433.269 560.552,432.602 566.5,431.5C 608.497,427.334 650.497,423.167 692.5,419C 708.689,417.429 724.689,414.929 740.5,411.5 Z"/></g>
<g><path style="opacity:1" fill="#70c6df" d="M 852.5,392.5 C 852.709,403.194 852.375,413.86 851.5,424.5C 850.5,424.5 849.5,424.5 848.5,424.5C 848.5,422.5 848.5,420.5 848.5,418.5C 848.5,407.833 848.5,397.167 848.5,386.5C 852.068,386.759 853.401,388.759 852.5,392.5 Z"/></g>
<g><path style="opacity:1" fill="#6ec0db" d="M 828.5,396.5 C 785.996,405.801 743.329,414.468 700.5,422.5C 649.826,427.834 599.159,433.168 548.5,438.5C 542.296,438.328 542.296,437.328 548.5,435.5C 596.531,431.093 644.531,426.259 692.5,421C 709.057,419.255 725.057,416.088 740.5,411.5C 743.187,411.664 745.854,411.497 748.5,411C 777.713,404.03 807.046,397.696 836.5,392C 839.167,391.333 841.833,391.333 844.5,392C 838.965,393.214 833.632,394.714 828.5,396.5 Z"/></g>
<g><path style="opacity:1" fill="#538cbf" d="M 852.5,392.5 C 853.167,398.833 853.833,405.167 854.5,411.5C 853.833,416.167 853.167,420.833 852.5,425.5C 850.5,425.5 848.5,425.5 846.5,425.5C 846.5,425.167 846.5,424.833 846.5,424.5C 847.167,422.5 847.833,420.5 848.5,418.5C 848.5,420.5 848.5,422.5 848.5,424.5C 849.5,424.5 850.5,424.5 851.5,424.5C 852.375,413.86 852.709,403.194 852.5,392.5 Z"/></g>
<g><path style="opacity:1" fill="#6dbfdb" d="M 740.5,411.5 C 724.689,414.929 708.689,417.429 692.5,419C 650.497,423.167 608.497,427.334 566.5,431.5C 563.375,430.521 560.042,430.187 556.5,430.5C 611.02,424.688 665.686,418.854 720.5,413C 761.157,404.17 801.823,395.336 842.5,386.5C 843.167,386.833 843.833,387.167 844.5,387.5C 839.267,389.309 833.934,390.809 828.5,392C 798.72,397.619 769.386,404.119 740.5,411.5 Z"/></g>
<g><path style="opacity:1" fill="#6ec0dc" d="M 836.5,408.5 C 839.572,408.183 842.572,408.516 845.5,409.5C 844.051,410.172 842.718,410.839 841.5,411.5C 842.978,411.238 844.311,411.571 845.5,412.5C 845.291,413.086 844.957,413.586 844.5,414C 801.849,423.987 759.183,433.987 716.5,444C 659.424,450.249 602.424,457.083 545.5,464.5C 544.5,464.833 543.5,465.167 542.5,465.5C 545.784,466.657 549.118,466.824 552.5,466C 607.179,459.717 661.845,453.384 716.5,447C 759.296,436.11 802.129,425.61 845,415.5C 845.5,416 846,416.5 846.5,417C 803.32,427.961 759.987,438.628 716.5,449C 658.951,456.639 601.285,463.139 543.5,468.5C 543.5,469.5 543.5,470.5 543.5,471.5C 598.518,465.414 653.518,459.248 708.5,453C 753.192,441.452 798.025,430.619 843,420.5C 843.833,420.833 844.667,421.167 845.5,421.5C 800.121,433.427 754.455,444.594 708.5,455C 653.433,460.925 598.433,467.425 543.5,474.5C 547.795,475.661 552.129,475.828 556.5,475C 609.92,469.311 663.253,462.977 716.5,456C 759.601,444.805 802.935,434.305 846.5,424.5C 846.5,424.833 846.5,425.167 846.5,425.5C 802.084,437.19 757.417,448.357 712.5,459C 656.238,465.908 599.905,472.408 543.5,478.5C 543.5,479.5 543.5,480.5 543.5,481.5C 542.167,481.5 540.833,481.5 539.5,481.5C 539.5,467.833 539.5,454.167 539.5,440.5C 539.821,438.952 540.821,438.285 542.5,438.5C 542.5,439.5 542.5,440.5 542.5,441.5C 543.609,442.29 544.942,442.79 546.5,443C 545.207,443.49 543.873,443.657 542.5,443.5C 542.5,444.5 542.5,445.5 542.5,446.5C 544.735,446.795 546.735,446.461 548.5,445.5C 569.768,442.842 591.102,440.842 612.5,439.5C 615.385,439.194 618.052,439.527 620.5,440.5C 596.544,443.328 572.544,445.828 548.5,448C 546.423,448.192 544.423,448.692 542.5,449.5C 543.833,449.833 545.167,450.167 546.5,450.5C 601.199,444.996 655.866,439.163 710.5,433C 754.908,422.733 799.408,412.9 844,403.5C 844.833,403.833 845.667,404.167 846.5,404.5C 842.862,405.327 839.529,406.661 836.5,408.5 Z"/></g>
<g><path style="opacity:1" fill="#315f96" d="M 841.5,411.5 C 836.129,413.741 830.462,414.908 824.5,415C 830.014,413.131 835.68,411.964 841.5,411.5 Z"/></g>
<g><path style="opacity:1" fill="#315893" d="M 836.5,408.5 C 832.849,410.978 828.849,411.645 824.5,410.5C 828.32,408.855 832.32,408.189 836.5,408.5 Z"/></g>
<g><path style="opacity:1" fill="#6ebfdd" d="M 420.5,425.5 C 428.528,425.169 436.528,425.502 444.5,426.5C 448.468,429.084 450.968,432.751 452,437.5C 455.284,452.855 455.284,468.188 452,483.5C 451.051,486.34 449.551,488.84 447.5,491C 430.259,498.81 412.259,501.477 393.5,499C 392,497.5 390.5,496 389,494.5C 384.006,477.968 383.339,461.302 387,444.5C 389.833,437.667 394.667,432.833 401.5,430C 407.966,428.465 414.299,426.965 420.5,425.5 Z"/></g>
<g><path style="opacity:1" fill="#6abbd9" d="M 620.5,440.5 C 618.052,439.527 615.385,439.194 612.5,439.5C 645.958,435.131 679.624,431.297 713.5,428C 756.007,417.874 798.674,408.374 841.5,399.5C 842.5,399.833 843.5,400.167 844.5,400.5C 799.319,411.237 753.986,421.403 708.5,431C 679.138,433.837 649.805,437.003 620.5,440.5 Z"/></g>
<g><path style="opacity:1" fill="#25418f" d="M 521.5,440.5 C 521.744,447.7 521.41,454.866 520.5,462C 520.576,464.756 519.243,465.923 516.5,465.5C 516.46,460.807 516.127,456.141 515.5,451.5C 514.5,451.5 513.5,451.5 512.5,451.5C 512.371,453.216 512.038,454.883 511.5,456.5C 511.167,456.5 510.833,456.5 510.5,456.5C 510.762,455.022 510.429,453.689 509.5,452.5C 506.654,458.682 502.654,464.015 497.5,468.5C 494.895,467.33 492.562,465.997 490.5,464.5C 493.518,464.665 496.518,464.498 499.5,464C 504.824,459.884 507.158,454.384 506.5,447.5C 502.486,447.334 498.486,447.501 494.5,448C 490.848,449.773 487.015,450.94 483,451.5C 479.146,450.741 475.646,449.408 472.5,447.5C 472.5,448.5 472.5,449.5 472.5,450.5C 467.92,450.412 464.587,452.412 462.5,456.5C 461.512,451.36 461.179,446.026 461.5,440.5C 462.194,433.608 465.527,428.441 471.5,425C 484.701,419.822 498.368,418.155 512.5,420C 513.931,420.465 515.097,421.299 516,422.5C 518.99,428.291 520.823,434.291 521.5,440.5 Z"/></g>
<g><path style="opacity:1" fill="#75cde3" d="M 503.5,422.5 C 510.623,421.384 513.956,424.384 513.5,431.5C 513.167,433.167 512.833,434.833 512.5,436.5C 510.473,433.779 508.973,430.779 508,427.5C 506.242,425.917 504.742,424.25 503.5,422.5 Z"/></g>
<g><path style="opacity:1" fill="#6aabd9" d="M 284.5,408.5 C 308.81,421.32 332.81,434.654 356.5,448.5C 354.436,448.313 352.436,447.813 350.5,447C 332.187,436.174 313.52,425.84 294.5,416C 290.657,413.965 287.324,411.465 284.5,408.5 Z"/></g>
<g><path style="opacity:1" fill="#71c4df" d="M 482.5,424.5 C 489.651,423.576 496.317,424.743 502.5,428C 504.049,429.214 505.215,430.714 506,432.5C 506.392,435.627 507.225,438.627 508.5,441.5C 507.833,441.833 507.167,442.167 506.5,442.5C 504.586,440.336 502.586,438.169 500.5,436C 496.129,435.371 491.796,435.537 487.5,436.5C 487.421,437.93 487.754,439.264 488.5,440.5C 485.683,443.187 482.516,444.187 479,443.5C 478.333,442.5 478.333,441.5 479,440.5C 481.5,438 484,435.5 486.5,433C 489.177,432.751 491.51,431.751 493.5,430C 485.064,428.923 477.73,431.257 471.5,437C 470.365,437.749 469.365,437.583 468.5,436.5C 469.711,434.578 471.044,432.745 472.5,431C 475.739,428.577 479.072,426.41 482.5,424.5 Z"/></g>
<g><path style="opacity:1" fill="#69b9d8" d="M 845.5,395.5 C 842.908,397.177 839.908,398.343 836.5,399C 796.355,407.036 756.355,415.703 716.5,425C 660.517,431.331 604.517,437.664 548.5,444C 541.866,444.823 541.866,445.323 548.5,445.5C 546.735,446.461 544.735,446.795 542.5,446.5C 542.5,445.5 542.5,444.5 542.5,443.5C 543.873,443.657 545.207,443.49 546.5,443C 544.942,442.79 543.609,442.29 542.5,441.5C 542.833,441.5 543.167,441.5 543.5,441.5C 598.425,435.093 653.425,429.26 708.5,424C 749.489,415.002 790.489,406.169 831.5,397.5C 836.067,396.264 840.734,395.598 845.5,395.5 Z"/></g>
<g><path style="opacity:1" fill="#284291" d="M 785.5,421.5 C 761.15,426.67 736.817,432.004 712.5,437.5C 660.312,443.192 608.312,449.192 556.5,455.5C 551.819,455.669 547.152,456.002 542.5,456.5C 542.5,455.167 542.5,453.833 542.5,452.5C 597.855,447.164 653.188,441.664 708.5,436C 734.333,430.251 760.166,424.417 786,418.5C 786.5,418.833 787,419.167 787.5,419.5C 786.757,420.182 786.091,420.849 785.5,421.5 Z"/></g>
<g><path style="opacity:1" fill="#70b8df" d="M 535.5,434.5 C 533.516,449.464 532.849,464.797 533.5,480.5C 534.5,480.5 535.5,480.5 536.5,480.5C 536.171,466.99 536.504,453.656 537.5,440.5C 537.5,454.167 537.5,467.833 537.5,481.5C 535.95,482.72 534.284,482.72 532.5,481.5C 532.5,465.5 532.5,449.5 532.5,433.5C 533.791,433.263 534.791,433.596 535.5,434.5 Z"/></g>
<g><path style="opacity:1" fill="#284391" d="M 785.5,423.5 C 788.097,423.721 788.097,424.221 785.5,425C 759.887,431.388 734.22,437.388 708.5,443C 653.178,449.332 597.845,455.499 542.5,461.5C 542.5,460.5 542.5,459.5 542.5,458.5C 549.971,457.494 557.305,456.494 564.5,455.5C 572.517,455.332 580.517,454.832 588.5,454C 629.197,449.617 669.864,444.95 710.5,440C 735.592,434.905 760.592,429.405 785.5,423.5 Z"/></g>
<g><path style="opacity:1" fill="#528ebc" d="M 357.5,446.5 C 359.595,447.412 361.595,448.579 363.5,450C 364.219,452.556 365.886,453.723 368.5,453.5C 367.399,454.598 366.066,454.765 364.5,454C 361.177,452.861 358.51,451.027 356.5,448.5C 358.698,448.591 359.031,447.925 357.5,446.5 Z"/></g>
<g><path style="opacity:1" fill="#6fc2dd" d="M 844.5,434.5 C 845.833,434.5 847.167,434.5 848.5,434.5C 848.5,435.5 848.5,436.5 848.5,437.5C 803.262,448.309 757.929,458.809 712.5,469C 656.701,475.875 600.868,483.042 545,490.5C 543.833,490.167 542.667,489.833 541.5,489.5C 541.833,488.833 542.167,488.167 542.5,487.5C 598.778,479.49 655.112,471.99 711.5,465C 756.178,455.912 800.512,445.745 844.5,434.5 Z"/></g>
<g><path style="opacity:1" fill="#66b4d5" d="M 785.5,421.5 C 785.5,422.167 785.5,422.833 785.5,423.5C 760.592,429.405 735.592,434.905 710.5,440C 669.864,444.95 629.197,449.617 588.5,454C 580.517,454.832 572.517,455.332 564.5,455.5C 561.833,455.5 559.167,455.5 556.5,455.5C 608.312,449.192 660.312,443.192 712.5,437.5C 736.817,432.004 761.15,426.67 785.5,421.5 Z"/></g>
<g><path style="opacity:1" fill="#25428f" d="M 420.5,428.5 C 439.541,422.442 449.707,429.109 451,448.5C 451.923,458.574 451.59,468.574 450,478.5C 448.12,472.65 445.787,466.983 443,461.5C 439.413,474.067 431.913,483.234 420.5,489C 442.936,489.601 442.936,491.935 420.5,496C 412.514,496.999 404.514,497.333 396.5,497C 394,495.833 392.167,494 391,491.5C 386.54,475.108 386.54,458.775 391,442.5C 393.909,438.261 397.743,435.094 402.5,433C 408.55,431.107 414.55,429.607 420.5,428.5 Z"/></g>
<g><path style="opacity:1" fill="#6cb5da" d="M 407.5,471.5 C 406.883,471.389 406.383,471.056 406,470.5C 405.498,467.487 404.998,464.487 404.5,461.5C 401.557,461.647 398.724,462.313 396,463.5C 394.162,461.955 392.995,462.289 392.5,464.5C 393.651,466.325 394.318,468.325 394.5,470.5C 390.297,467.889 389.631,464.555 392.5,460.5C 391.48,458.568 391.313,456.568 392,454.5C 395.356,448.984 399.523,444.318 404.5,440.5C 405.167,440.833 405.833,441.167 406.5,441.5C 403.182,444.317 400.015,447.317 397,450.5C 395.937,453.769 395.104,457.102 394.5,460.5C 395.774,462.85 397.107,462.683 398.5,460C 400.5,459.333 402.5,459.333 404.5,460C 406.096,463.649 407.096,467.482 407.5,471.5 Z"/></g>
<g><path style="opacity:1" fill="#72c7e2" d="M 433.5,433.5 C 433.735,432.903 434.235,432.57 435,432.5C 438.395,433.82 441.895,434.82 445.5,435.5C 444.617,436.548 443.95,437.715 443.5,439C 445.525,442.695 445.858,446.528 444.5,450.5C 442.42,443.764 438.754,438.097 433.5,433.5 Z"/></g>
<g><path style="opacity:1" fill="#5ea8cf" d="M 529.5,430.5 C 530.831,438.472 531.498,446.806 531.5,455.5C 531.498,464.194 530.831,472.528 529.5,480.5C 529.5,463.833 529.5,447.167 529.5,430.5 Z"/></g>
<g><path style="opacity:1" fill="#74cfe1" d="M 535.5,434.5 C 536.167,434.833 536.833,435.167 537.5,435.5C 537.5,437.167 537.5,438.833 537.5,440.5C 536.504,453.656 536.171,466.99 536.5,480.5C 535.5,480.5 534.5,480.5 533.5,480.5C 532.849,464.797 533.516,449.464 535.5,434.5 Z"/></g>
<g><path style="opacity:1" fill="#72cde0" d="M 422.5,479.5 C 421.4,480.558 420.066,481.392 418.5,482C 415.023,482.663 411.523,483.163 408,483.5C 405.498,483.662 403.331,482.995 401.5,481.5C 397.425,479.033 395.092,475.366 394.5,470.5C 394.318,468.325 393.651,466.325 392.5,464.5C 392.995,462.289 394.162,461.955 396,463.5C 398.724,462.313 401.557,461.647 404.5,461.5C 404.998,464.487 405.498,467.487 406,470.5C 406.383,471.056 406.883,471.389 407.5,471.5C 408.209,472.404 409.209,472.737 410.5,472.5C 409.756,468.881 409.423,465.215 409.5,461.5C 412.187,461.664 414.854,461.497 417.5,461C 422.304,458.787 427.304,457.287 432.5,456.5C 433.166,453.972 433.832,451.306 434.5,448.5C 434.833,449.833 435.167,451.167 435.5,452.5C 434.461,457.578 433.128,462.578 431.5,467.5C 429.931,468.714 429.098,470.381 429,472.5C 425.701,473.875 423.534,476.209 422.5,479.5 Z"/></g>
<g><path style="opacity:1" fill="#71c9df" d="M 969.5,428.5 C 969.67,429.822 969.337,430.989 968.5,432C 954.94,435.306 941.273,438.14 927.5,440.5C 927.154,443.885 926.488,447.218 925.5,450.5C 929.285,457.061 927.618,459.394 920.5,457.5C 918.432,457.967 916.432,458.634 914.5,459.5C 913.833,473.5 913.167,487.5 912.5,501.5C 911.501,487.85 911.167,474.183 911.5,460.5C 906.759,458.81 902.093,457.144 897.5,455.5C 895.946,454.105 896.279,453.439 898.5,453.5C 904.925,456.456 911.592,457.123 918.5,455.5C 915.65,453.573 912.983,451.406 910.5,449C 904.202,448.178 898.368,449.345 893,452.5C 892.501,456.486 892.334,460.486 892.5,464.5C 892.5,476.167 892.5,487.833 892.5,499.5C 891.167,499.5 889.833,499.5 888.5,499.5C 888.5,493.167 888.5,486.833 888.5,480.5C 885.348,481.957 882.015,482.957 878.5,483.5C 878.5,482.167 878.5,480.833 878.5,479.5C 882.102,479.533 885.102,478.199 887.5,475.5C 888.497,468.197 888.831,460.863 888.5,453.5C 882.486,452.222 876.486,452.388 870.5,454C 859.954,457.069 849.288,459.736 838.5,462C 833.848,462.481 831.515,464.981 831.5,469.5C 838.696,467.536 846.03,465.869 853.5,464.5C 853.5,465.5 853.5,466.5 853.5,467.5C 841.448,469.963 829.448,472.629 817.5,475.5C 817.5,476.833 817.5,478.167 817.5,479.5C 827.237,476.977 836.904,474.144 846.5,471C 848.259,470.202 849.926,470.369 851.5,471.5C 840.222,475.037 828.889,478.371 817.5,481.5C 817.5,482.5 817.5,483.5 817.5,484.5C 826.619,481.311 835.785,478.311 845,475.5C 845.833,475.833 846.667,476.167 847.5,476.5C 847,476.833 846.5,477.167 846,477.5C 836.221,480.151 826.721,483.484 817.5,487.5C 818,487.833 818.5,488.167 819,488.5C 828.271,485.799 837.438,482.799 846.5,479.5C 847.167,479.833 847.833,480.167 848.5,480.5C 846.009,482.412 843.342,483.746 840.5,484.5C 833.803,486.287 827.137,488.287 820.5,490.5C 821.167,490.833 821.833,491.167 822.5,491.5C 828.348,489.24 834.348,487.574 840.5,486.5C 838.207,488.422 835.541,489.755 832.5,490.5C 814.76,495.117 797.093,500.117 779.5,505.5C 778.127,505.657 776.793,505.49 775.5,505C 776.056,504.617 776.389,504.117 776.5,503.5C 778.896,502.7 781.229,501.7 783.5,500.5C 782.675,499.614 781.675,499.281 780.5,499.5C 778.901,499.768 777.568,499.434 776.5,498.5C 778.781,497.661 781.115,496.661 783.5,495.5C 784.386,494.675 784.719,493.675 784.5,492.5C 781.756,493.205 779.089,493.205 776.5,492.5C 778.289,491.123 780.289,490.123 782.5,489.5C 783.213,485.26 783.546,481.093 783.5,477C 767.054,479.807 750.72,483.474 734.5,488C 671.275,496.653 607.942,504.82 544.5,512.5C 538.171,515.17 531.505,516.67 524.5,517C 522.015,518.487 519.848,520.321 518,522.5C 517.272,537.178 517.439,551.845 518.5,566.5C 518.941,570.18 517.941,573.347 515.5,576C 511.129,576.828 506.795,576.661 502.5,575.5C 506.312,573.425 509.979,571.092 513.5,568.5C 516.222,565.301 517.055,561.634 516,557.5C 511.835,565.956 505.002,569.623 495.5,568.5C 495.594,564.646 497.428,561.979 501,560.5C 506.697,547.817 508.864,534.651 507.5,521C 499.814,521.085 492.147,521.751 484.5,523C 462.222,526.577 439.888,529.91 417.5,533C 405.883,534.773 394.217,535.44 382.5,535C 381.107,533.829 380.273,532.329 380,530.5C 377.356,528.69 374.856,526.69 372.5,524.5C 371.731,521.49 370.897,518.49 370,515.5C 367.681,514.178 365.514,512.678 363.5,511C 365.013,509.121 365.679,506.954 365.5,504.5C 375.745,506.39 386.079,506.89 396.5,506C 440.423,498.549 484.423,491.382 528.5,484.5C 532.946,483.932 534.279,485.599 532.5,489.5C 484.456,496.674 436.456,504.174 388.5,512C 399.198,511.664 409.864,510.664 420.5,509C 459.075,502.512 497.742,496.678 536.5,491.5C 538.225,491.843 538.725,492.843 538,494.5C 490.829,501.543 443.662,508.709 396.5,516C 386.105,517.945 385.938,520.445 396,523.5C 407.445,519.944 419.112,517.277 431,515.5C 434.935,516.311 435.435,518.144 432.5,521C 436.155,522.005 438.488,520.672 439.5,517C 443.841,516.907 448.174,516.907 452.5,517C 465.473,512.568 478.807,509.568 492.5,508C 499.831,506.402 506.498,507.735 512.5,512C 519.933,512.849 527.266,512.349 534.5,510.5C 533.05,509.15 532.383,507.484 532.5,505.5C 531.167,505.5 529.833,505.5 528.5,505.5C 528.993,503.194 529.326,500.861 529.5,498.5C 530.833,498.5 532.167,498.5 533.5,498.5C 533.201,500.604 533.534,502.604 534.5,504.5C 536.217,503.332 536.884,501.665 536.5,499.5C 543.113,500.769 549.78,501.269 556.5,501C 615.371,494.308 674.038,486.308 732.5,477C 770.203,467.945 807.537,458.112 844.5,447.5C 845.918,445.077 847.918,443.411 850.5,442.5C 852.872,443.363 852.872,444.529 850.5,446C 851.167,446.167 851.833,446.333 852.5,446.5C 863.275,442.964 873.942,439.13 884.5,435C 889.982,434.15 895.316,434.65 900.5,436.5C 909.901,432.476 919.567,428.976 929.5,426C 934.375,425.247 939.208,425.414 944,426.5C 946.993,425.6 948.826,423.6 949.5,420.5C 948.333,420.167 947.167,419.833 946,419.5C 916.705,424.899 887.538,430.899 858.5,437.5C 857.558,437.392 856.725,437.059 856,436.5C 855.776,433.89 856.276,431.39 857.5,429C 882.718,424.124 907.718,418.957 932.5,413.5C 941.323,413.667 949.989,413.167 958.5,412C 962.562,417.307 966.229,422.807 969.5,428.5 Z"/></g>
<g><path style="opacity:1" fill="#2f5097" d="M 897.5,455.5 C 896.417,455.461 895.417,455.127 894.5,454.5C 893.833,457.977 893.166,461.311 892.5,464.5C 892.334,460.486 892.501,456.486 893,452.5C 898.368,449.345 904.202,448.178 910.5,449C 912.983,451.406 915.65,453.573 918.5,455.5C 911.592,457.123 904.925,456.456 898.5,453.5C 896.279,453.439 895.946,454.105 897.5,455.5 Z"/></g>
<g><path style="opacity:1" fill="#2a4894" d="M 887.5,440.5 C 892.165,440.118 896.499,441.118 900.5,443.5C 895.636,444.378 890.802,445.378 886,446.5C 882.707,446.954 880.874,445.62 880.5,442.5C 883.067,442.279 885.401,441.612 887.5,440.5 Z"/></g>
<g><path style="opacity:1" fill="#3b79a6" d="M 916.5,420.5 C 900.856,425.054 884.856,428.221 868.5,430C 884.365,426.078 900.365,422.912 916.5,420.5 Z"/></g>
<g><path style="opacity:1" fill="#3a73a6" d="M 916.5,420.5 C 924.118,417.434 932.118,415.934 940.5,416C 932.592,418.04 924.592,419.54 916.5,420.5 Z"/></g>
<g><path style="opacity:1" fill="#72c9e0" d="M 460.5,440.5 C 460.173,450.015 460.506,459.348 461.5,468.5C 466.258,476.603 473.425,480.269 483,479.5C 497.355,477.989 506.855,470.322 511.5,456.5C 512.038,454.883 512.371,453.216 512.5,451.5C 513.5,451.5 514.5,451.5 515.5,451.5C 516.127,456.141 516.46,460.807 516.5,465.5C 519.243,465.923 520.576,464.756 520.5,462C 521.41,454.866 521.744,447.7 521.5,440.5C 522.167,440.5 522.833,440.5 523.5,440.5C 523.666,448.507 523.5,456.507 523,464.5C 522.062,474.102 517.229,480.936 508.5,485C 495.379,488.445 482.046,489.779 468.5,489C 462.513,485.196 459.513,479.696 459.5,472.5C 459.603,465.314 459.27,458.147 458.5,451C 458.559,446.674 459.226,443.174 460.5,440.5 Z"/></g>
<g><path style="opacity:1" fill="#4778b2" d="M 460.5,440.5 C 460.833,440.5 461.167,440.5 461.5,440.5C 461.179,446.026 461.512,451.36 462.5,456.5C 462.5,458.5 462.5,460.5 462.5,462.5C 461.539,464.265 461.205,466.265 461.5,468.5C 460.506,459.348 460.173,450.015 460.5,440.5 Z"/></g>
<g><path style="opacity:1" fill="#72cbe0" d="M 490.5,464.5 C 488.824,465.183 488.157,466.517 488.5,468.5C 490.288,468.215 491.955,468.548 493.5,469.5C 493.167,470.167 492.833,470.833 492.5,471.5C 488.878,472.325 485.211,472.825 481.5,473C 482.025,473.692 482.692,474.192 483.5,474.5C 485.839,473.276 488.172,473.276 490.5,474.5C 486.722,476.255 482.722,476.922 478.5,476.5C 469.449,475.988 464.116,471.321 462.5,462.5C 462.5,460.5 462.5,458.5 462.5,456.5C 464.587,452.412 467.92,450.412 472.5,450.5C 472.5,449.5 472.5,448.5 472.5,447.5C 475.646,449.408 479.146,450.741 483,451.5C 487.015,450.94 490.848,449.773 494.5,448C 498.486,447.501 502.486,447.334 506.5,447.5C 507.158,454.384 504.824,459.884 499.5,464C 496.518,464.498 493.518,464.665 490.5,464.5 Z"/></g>
<g><path style="opacity:1" fill="#234590" d="M 472.5,456.5 C 473.496,456.414 474.329,456.748 475,457.5C 475.33,460.489 476.164,463.322 477.5,466C 477.167,466.5 476.833,467 476.5,467.5C 473.196,464.653 471.862,460.986 472.5,456.5 Z"/></g>
<g><path style="opacity:1" fill="#71c4df" d="M 286.5,472.5 C 285.698,471.048 285.198,469.382 285,467.5C 284.722,468.416 284.222,469.082 283.5,469.5C 283.5,467.833 283.5,466.167 283.5,464.5C 287.132,463.267 288.798,460.601 288.5,456.5C 285.675,456.081 283.509,457.081 282,459.5C 275.379,472.675 272.879,486.675 274.5,501.5C 273.5,501.5 272.5,501.5 271.5,501.5C 270.522,488.854 272.022,476.521 276,464.5C 277.933,460.302 280.599,456.635 284,453.5C 285.489,449.167 283.989,446.833 279.5,446.5C 277.029,446.795 274.863,447.795 273,449.5C 268.209,456.417 265.709,464.083 265.5,472.5C 264.056,478.942 263.39,485.608 263.5,492.5C 263.677,502.022 264.344,511.355 265.5,520.5C 267.53,542.297 274.03,562.63 285,581.5C 288.147,584.468 290.814,587.802 293,591.5C 298,595.5 303,595.5 308,591.5C 310.699,586.813 313.366,582.147 316,577.5C 316.126,587.417 311.959,594.917 303.5,600C 300.036,600.817 296.702,600.483 293.5,599C 286.863,594.459 281.696,588.626 278,581.5C 272.158,571.484 267.824,560.818 265,549.5C 258.888,522.48 256.888,495.146 259,467.5C 261.002,461.489 263.002,455.489 265,449.5C 267.846,444.643 271.846,441.309 277,439.5C 278.257,439.15 278.591,438.483 278,437.5C 243.221,396.258 228.887,402.591 235,456.5C 237.821,471.498 243.987,484.831 253.5,496.5C 254.452,498.045 254.785,499.712 254.5,501.5C 208.055,460.556 162.722,418.39 118.5,375C 114.976,371.975 111.309,369.142 107.5,366.5C 106.065,368.401 104.398,368.734 102.5,367.5C 99.7287,362.248 98.2287,356.581 98,350.5C 96.4977,347.982 94.9977,345.482 93.5,343C 92.3999,342.568 91.7332,343.068 91.5,344.5C 93.9205,349.507 95.9205,354.674 97.5,360C 97.5765,362.756 96.2431,363.923 93.5,363.5C 94.3614,374.912 97.5281,385.578 103,395.5C 103.494,397.134 103.66,398.801 103.5,400.5C 101.833,400.5 100.167,400.5 98.5,400.5C 95.0725,391.46 92.5725,382.127 91,372.5C 89.7592,359.518 88.7592,346.518 88,333.5C 84.6667,329.5 81,325.833 77,322.5C 76.4092,321.517 76.7425,320.85 78,320.5C 82.2189,323.949 86.2189,327.616 90,331.5C 95.926,342.422 102.259,353.089 109,363.5C 153.169,403.929 197.169,444.596 241,485.5C 237.641,476.08 234.641,466.413 232,456.5C 230.028,443.497 230.028,430.497 232,417.5C 233.403,414.095 235.569,411.262 238.5,409C 244.064,407.99 249.398,408.657 254.5,411C 264.313,418.148 273.146,426.315 281,435.5C 284.882,443.14 288.382,450.973 291.5,459C 289.33,463.347 287.663,467.847 286.5,472.5 Z"/></g>
<g><path style="opacity:1" fill="#70cadf" d="M 98.5,371.5 C 102.115,373.021 104.615,375.687 106,379.5C 106.936,382.792 106.436,385.792 104.5,388.5C 99.9125,383.852 97.9125,378.186 98.5,371.5 Z"/></g>
<g><path style="opacity:1" fill="#71c0e0" d="M 510.5,456.5 C 507.425,463.416 502.759,469.249 496.5,474C 490.681,477.277 484.681,478.11 478.5,476.5C 482.722,476.922 486.722,476.255 490.5,474.5C 488.172,473.276 485.839,473.276 483.5,474.5C 482.692,474.192 482.025,473.692 481.5,473C 485.211,472.825 488.878,472.325 492.5,471.5C 492.833,470.833 493.167,470.167 493.5,469.5C 491.955,468.548 490.288,468.215 488.5,468.5C 488.157,466.517 488.824,465.183 490.5,464.5C 492.562,465.997 494.895,467.33 497.5,468.5C 502.654,464.015 506.654,458.682 509.5,452.5C 510.429,453.689 510.762,455.022 510.5,456.5 Z"/></g>
<g><path style="opacity:1" fill="#71c5e0" d="M 401.5,482.5 C 403.508,484.927 406.174,485.927 409.5,485.5C 420.773,484.071 429.273,478.404 435,468.5C 435.991,466.553 436.325,464.553 436,462.5C 433.856,470.133 429.356,475.799 422.5,479.5C 423.534,476.209 425.701,473.875 429,472.5C 429.098,470.381 429.931,468.714 431.5,467.5C 433.128,462.578 434.461,457.578 435.5,452.5C 435.167,451.167 434.833,449.833 434.5,448.5C 433.832,451.306 433.166,453.972 432.5,456.5C 432.664,453.813 432.497,451.146 432,448.5C 427.049,447.138 422.215,447.638 417.5,450C 415.771,451.789 415.104,453.956 415.5,456.5C 412.5,455.833 409.5,455.167 406.5,454.5C 406.015,449.458 408.015,445.624 412.5,443C 417.091,441.947 421.758,441.114 426.5,440.5C 421.198,439.671 415.864,439.171 410.5,439C 409.167,438 409.167,437 410.5,436C 417.97,433.759 425.303,434.092 432.5,437C 433.667,438.167 434.833,439.333 436,440.5C 436.811,445.73 438.311,450.73 440.5,455.5C 437.859,478.32 425.193,488.82 402.5,487C 397.223,484.56 393.557,480.727 391.5,475.5C 394.625,478.01 397.958,480.343 401.5,482.5 Z"/></g>
<g><path style="opacity:1" fill="#3d7dab" d="M 537.5,435.5 C 538.167,437.167 538.833,438.833 539.5,440.5C 539.5,454.167 539.5,467.833 539.5,481.5C 538.833,481.5 538.167,481.5 537.5,481.5C 537.5,467.833 537.5,454.167 537.5,440.5C 537.5,438.833 537.5,437.167 537.5,435.5 Z"/></g>
<g><path style="opacity:1" fill="#25508f" d="M 510.5,456.5 C 510.833,456.5 511.167,456.5 511.5,456.5C 506.855,470.322 497.355,477.989 483,479.5C 473.425,480.269 466.258,476.603 461.5,468.5C 461.205,466.265 461.539,464.265 462.5,462.5C 464.116,471.321 469.449,475.988 478.5,476.5C 484.681,478.11 490.681,477.277 496.5,474C 502.759,469.249 507.425,463.416 510.5,456.5 Z"/></g>
<g><path style="opacity:1" fill="#3872a2" d="M 401.5,482.5 C 401.5,482.167 401.5,481.833 401.5,481.5C 403.331,482.995 405.498,483.662 408,483.5C 411.523,483.163 415.023,482.663 418.5,482C 420.066,481.392 421.4,480.558 422.5,479.5C 429.356,475.799 433.856,470.133 436,462.5C 436.325,464.553 435.991,466.553 435,468.5C 429.273,478.404 420.773,484.071 409.5,485.5C 406.174,485.927 403.508,484.927 401.5,482.5 Z"/></g>
<g><path style="opacity:1" fill="#284e93" d="M 265.5,472.5 C 265.5,488.5 265.5,504.5 265.5,520.5C 264.344,511.355 263.677,502.022 263.5,492.5C 263.39,485.608 264.056,478.942 265.5,472.5 Z"/></g>
<g><path style="opacity:1" fill="#284890" d="M 443.5,476.5 C 445.922,479.208 445.922,482.208 443.5,485.5C 441.232,486.544 438.899,486.711 436.5,486C 439.462,483.219 441.796,480.052 443.5,476.5 Z"/></g>
<g><path style="opacity:1" fill="#22408c" d="M 492.5,480.5 C 496.226,480.177 499.893,480.511 503.5,481.5C 503.291,482.086 502.957,482.586 502.5,483C 492.183,484.117 481.85,484.45 471.5,484C 478.653,482.903 485.653,481.737 492.5,480.5 Z"/></g>
<g><path style="opacity:1" fill="#3f7eac" d="M 840.5,484.5 C 840.5,485.167 840.5,485.833 840.5,486.5C 834.348,487.574 828.348,489.24 822.5,491.5C 821.833,491.167 821.167,490.833 820.5,490.5C 827.137,488.287 833.803,486.287 840.5,484.5 Z"/></g>
<g><path style="opacity:1" fill="#6bbfd9" d="M 390.5,480.5 C 395.865,485.786 401.698,489.786 408,492.5C 400.995,494.775 395.495,492.775 391.5,486.5C 390.534,484.604 390.201,482.604 390.5,480.5 Z"/></g>
<g><path style="opacity:1" fill="#6ebedd" d="M 315.5,488.5 C 316.552,488.351 317.552,488.517 318.5,489C 326.575,494.698 334.908,499.865 343.5,504.5C 343.5,505.5 343.5,506.5 343.5,507.5C 341.692,507.509 340.025,507.009 338.5,506C 331.167,501.333 323.833,496.667 316.5,492C 315.663,490.989 315.33,489.822 315.5,488.5 Z"/></g>
<g><path style="opacity:1" fill="#233f8f" d="M 772.5,513.5 C 772.5,515.833 772.5,518.167 772.5,520.5C 771.594,524.678 770.76,529.012 770,533.5C 769.727,535.329 768.893,536.829 767.5,538C 741.61,544.703 715.61,550.869 689.5,556.5C 687.36,556.444 685.694,555.777 684.5,554.5C 684.5,541.489 684.834,528.489 685.5,515.5C 686.578,513.461 687.578,511.294 688.5,509C 703.461,506.477 718.128,503.31 732.5,499.5C 735.187,499.664 737.854,499.497 740.5,499C 751.523,496.097 762.523,493.43 773.5,491C 774.081,491.893 774.415,492.893 774.5,494C 773.298,500.449 772.631,506.949 772.5,513.5 Z"/></g>
<g><path style="opacity:1" fill="#5994c9" d="M 776.5,498.5 C 777.568,499.434 778.901,499.768 780.5,499.5C 779.081,500.451 777.415,500.784 775.5,500.5C 775.263,501.791 775.596,502.791 776.5,503.5C 776.389,504.117 776.056,504.617 775.5,505C 776.793,505.49 778.127,505.657 779.5,505.5C 778.081,506.451 776.415,506.784 774.5,506.5C 774.285,508.179 774.952,509.179 776.5,509.5C 775.737,510.268 774.737,510.768 773.5,511C 774.448,511.483 775.448,511.649 776.5,511.5C 776.842,512.338 777.508,512.672 778.5,512.5C 776.735,513.461 774.735,513.795 772.5,513.5C 772.631,506.949 773.298,500.449 774.5,494C 774.415,492.893 774.081,491.893 773.5,491C 762.523,493.43 751.523,496.097 740.5,499C 737.854,499.497 735.187,499.664 732.5,499.5C 745.628,496.586 758.795,492.92 772,488.5C 773.107,488.585 774.107,488.919 775,489.5C 775.181,492.695 775.681,495.695 776.5,498.5 Z"/></g>
<g><path style="opacity:1" fill="#2b5594" d="M 532.5,489.5 C 533.833,490.167 535.167,490.833 536.5,491.5C 497.742,496.678 459.075,502.512 420.5,509C 409.864,510.664 399.198,511.664 388.5,512C 436.456,504.174 484.456,496.674 532.5,489.5 Z"/></g>
<g><path style="opacity:1" fill="#2a4d92" d="M 778.5,512.5 C 777.508,512.672 776.842,512.338 776.5,511.5C 791.959,507.181 807.292,502.348 822.5,497C 825.442,495.876 828.442,495.542 831.5,496C 814.008,502.22 796.342,507.72 778.5,512.5 Z"/></g>
<g><path style="opacity:1" fill="#1f3d8e" d="M 780.5,499.5 C 781.675,499.281 782.675,499.614 783.5,500.5C 781.229,501.7 778.896,502.7 776.5,503.5C 775.596,502.791 775.263,501.791 775.5,500.5C 777.415,500.784 779.081,500.451 780.5,499.5 Z"/></g>
<g><path style="opacity:1" fill="#2b5194" d="M 832.5,490.5 C 832.5,490.833 832.5,491.167 832.5,491.5C 814.063,497.868 795.397,503.868 776.5,509.5C 774.952,509.179 774.285,508.179 774.5,506.5C 776.415,506.784 778.081,506.451 779.5,505.5C 797.093,500.117 814.76,495.117 832.5,490.5 Z"/></g>
<g><path style="opacity:1" fill="#6ebbdc" d="M 772.5,520.5 C 772.5,518.167 772.5,515.833 772.5,513.5C 774.735,513.795 776.735,513.461 778.5,512.5C 796.342,507.72 814.008,502.22 831.5,496C 828.442,495.542 825.442,495.876 822.5,497C 807.292,502.348 791.959,507.181 776.5,511.5C 775.448,511.649 774.448,511.483 773.5,511C 774.737,510.768 775.737,510.268 776.5,509.5C 795.397,503.868 814.063,497.868 832.5,491.5C 837.04,490.18 841.706,489.347 846.5,489C 848.624,487.878 850.457,486.378 852,484.5C 854.517,477.68 856.35,470.68 857.5,463.5C 857.833,465 858.167,466.5 858.5,468C 858.969,478.396 854.969,486.396 846.5,492C 823.963,501.808 800.629,509.474 776.5,515C 775.328,515.419 774.328,516.085 773.5,517C 799.479,511.785 824.646,503.952 849,493.5C 854.081,490.959 857.414,486.959 859,481.5C 860.559,475.245 861.726,468.911 862.5,462.5C 865.364,475.753 861.697,486.753 851.5,495.5C 825.793,505.856 799.46,514.189 772.5,520.5 Z"/></g>
<g><path style="opacity:1" fill="#6ebcdb" d="M 319.5,496.5 C 321.861,497.435 324.028,498.768 326,500.5C 326.447,503.975 327.28,507.309 328.5,510.5C 320.08,509.593 317.08,504.926 319.5,496.5 Z"/></g>
<g><path style="opacity:1" fill="#68a3d5" d="M 732.5,499.5 C 718.128,503.31 703.461,506.477 688.5,509C 687.578,511.294 686.578,513.461 685.5,515.5C 685.567,514.041 685.234,512.708 684.5,511.5C 685.249,510.469 685.915,509.302 686.5,508C 701.745,504.52 717.078,501.687 732.5,499.5 Z"/></g>
<g><path style="opacity:1" fill="#768db8" d="M 250.5,504.5 C 251.117,504.611 251.617,504.944 252,505.5C 252.497,507.81 252.663,510.143 252.5,512.5C 251.629,509.997 250.963,507.33 250.5,504.5 Z"/></g>
<g><path style="opacity:1" fill="#6ebedf" d="M 332.5,505.5 C 334.484,505.383 336.15,506.05 337.5,507.5C 338.133,510.513 339.133,513.346 340.5,516C 340.167,516.5 339.833,517 339.5,517.5C 332.472,516.101 330.139,512.101 332.5,505.5 Z"/></g>
<g><path style="opacity:1" fill="#6fc5dd" d="M 660.5,508.5 C 663.247,508.187 665.914,508.52 668.5,509.5C 658.008,511.979 647.341,513.479 636.5,514C 633.136,514.727 629.803,515.56 626.5,516.5C 641.227,516.495 655.893,515.161 670.5,512.5C 673.167,513.167 673.167,513.833 670.5,514.5C 655.782,516.34 641.115,518.506 626.5,521C 641.085,520.531 655.585,519.031 670,516.5C 672,517.167 672,517.833 670,518.5C 655.795,520.946 641.628,523.279 627.5,525.5C 629,525.833 630.5,526.167 632,526.5C 643.162,525.126 654.329,523.792 665.5,522.5C 667.167,522.833 668.833,523.167 670.5,523.5C 656.444,525.673 642.444,528.006 628.5,530.5C 629.833,530.833 631.167,531.167 632.5,531.5C 643.008,530.207 653.508,528.874 664,527.5C 665.833,527.833 667.667,528.167 669.5,528.5C 632.716,533.535 595.883,538.202 559,542.5C 557.167,542.167 555.333,541.833 553.5,541.5C 562.291,540.652 570.957,539.152 579.5,537C 572.662,537.041 565.829,537.541 559,538.5C 557.167,538.333 555.333,538.167 553.5,538C 553.833,537.667 554.167,537.333 554.5,537C 563.141,535.337 571.807,533.837 580.5,532.5C 579.167,532.167 577.833,531.833 576.5,531.5C 569.204,532.83 561.871,533.33 554.5,533C 555.833,532.333 557.167,531.667 558.5,531C 565.865,529.996 573.198,528.83 580.5,527.5C 579.167,527.167 577.833,526.833 576.5,526.5C 568.876,527.912 561.21,528.412 553.5,528C 562.029,525.996 570.696,524.829 579.5,524.5C 579.5,523.5 579.5,522.5 579.5,521.5C 570.148,522.336 560.815,523.336 551.5,524.5C 551.5,523.5 551.5,522.5 551.5,521.5C 588.076,518.219 624.41,513.886 660.5,508.5 Z"/></g>
<g><path style="opacity:1" fill="#72c9de" d="M 276.5,511.5 C 277.5,511.5 278.5,511.5 279.5,511.5C 281.934,517.917 282.934,524.584 282.5,531.5C 281.178,531.67 280.011,531.337 279,530.5C 275.473,524.504 274.64,518.17 276.5,511.5 Z"/></g>
<g><path style="opacity:1" fill="#6fc4de" d="M 523.5,520.5 C 525.433,520.729 527.1,521.562 528.5,523C 535.158,523.5 541.825,523.666 548.5,523.5C 548.244,525.912 549.244,527.579 551.5,528.5C 547.384,530.281 543.051,530.947 538.5,530.5C 538.657,545.909 537.657,561.242 535.5,576.5C 534.833,561.5 534.167,546.5 533.5,531.5C 529.515,529.783 525.682,527.783 522,525.5C 521.387,523.505 521.887,521.838 523.5,520.5 Z"/></g>
<g><path style="opacity:1" fill="#71c3df" d="M 271.5,519.5 C 272.496,519.414 273.329,519.748 274,520.5C 274.333,522.5 274.667,524.5 275,526.5C 277.068,530.687 279.234,534.687 281.5,538.5C 277.571,538.744 274.737,537.077 273,533.5C 271.399,528.825 270.899,524.158 271.5,519.5 Z"/></g>
<g><path style="opacity:1" fill="#72cae0" d="M 283.5,469.5 C 284.222,469.082 284.722,468.416 285,467.5C 285.198,469.382 285.698,471.048 286.5,472.5C 288.216,471.426 289.216,469.759 289.5,467.5C 290.325,466.614 291.325,466.281 292.5,466.5C 291.361,469.425 290.861,472.425 291,475.5C 291.908,473.561 293.408,472.561 295.5,472.5C 294.174,475.001 293.674,477.668 294,480.5C 295.707,481.138 297.54,481.138 299.5,480.5C 299.167,483.167 298.833,485.833 298.5,488.5C 299.5,488.5 300.5,488.5 301.5,488.5C 301.336,491.187 301.503,493.854 302,496.5C 303.11,498.037 304.61,498.703 306.5,498.5C 305.658,501.154 305.158,503.821 305,506.5C 307.041,507.423 309.208,507.756 311.5,507.5C 311.5,508.5 311.5,509.5 311.5,510.5C 308.5,510.167 307.167,511.5 307.5,514.5C 309.5,514.5 311.5,514.5 313.5,514.5C 313.5,515.833 313.5,517.167 313.5,518.5C 311.023,518.051 309.023,518.717 307.5,520.5C 308.712,522.923 310.712,523.923 313.5,523.5C 313.5,522.5 313.5,521.5 313.5,520.5C 314.5,520.5 315.5,520.5 316.5,520.5C 317.384,525.209 319.384,529.375 322.5,533C 338.209,542.85 353.876,552.683 369.5,562.5C 369.833,562.167 370.167,561.833 370.5,561.5C 366.29,548.433 361.956,535.433 357.5,522.5C 359.199,522.34 360.866,522.506 362.5,523C 365.205,526.865 368.871,529.365 373.5,530.5C 377.812,533.315 381.979,536.315 386,539.5C 386.589,549.209 387.589,558.875 389,568.5C 389.792,570.587 390.959,572.421 392.5,574C 400.643,575.12 408.81,575.953 417,576.5C 417.688,577.332 417.521,577.998 416.5,578.5C 415.205,579.098 413.872,579.598 412.5,580C 404.5,580.333 396.5,580.667 388.5,581C 390.336,582.419 392.336,583.586 394.5,584.5C 395.386,585.325 395.719,586.325 395.5,587.5C 393.692,587.509 392.025,587.009 390.5,586C 367.589,568.728 344.255,552.228 320.5,536.5C 320.691,549.827 318.858,562.827 315,575.5C 311.685,581.273 306.851,582.94 300.5,580.5C 298.253,579.755 296.42,578.422 295,576.5C 287.434,567.034 282.268,556.368 279.5,544.5C 280.822,544.33 281.989,544.663 283,545.5C 286.325,553.493 290.659,560.826 296,567.5C 298.041,568.423 300.208,568.756 302.5,568.5C 302.5,569.833 302.5,571.167 302.5,572.5C 304.857,572.663 307.19,572.497 309.5,572C 313.572,567.877 314.905,563.043 313.5,557.5C 311.167,556.167 308.833,554.833 306.5,553.5C 309.833,552.833 313.167,552.167 316.5,551.5C 314.393,549.113 311.727,547.78 308.5,547.5C 308.5,546.167 308.5,544.833 308.5,543.5C 319.051,542.098 319.051,539.931 308.5,537C 307.663,535.989 307.33,534.822 307.5,533.5C 310.545,533.492 313.545,533.159 316.5,532.5C 316.5,531.167 316.5,529.833 316.5,528.5C 305.529,526.406 294.696,523.739 284,520.5C 283.146,515.047 280.812,510.38 277,506.5C 275.202,495.293 276.702,484.626 281.5,474.5C 281.32,473.446 280.987,472.446 280.5,471.5C 281.602,470.824 282.602,470.158 283.5,469.5 Z"/></g>
<g><path style="opacity:1" fill="#71c9df" d="M 288.5,526.5 C 295.852,527.344 300.685,531.344 303,538.5C 305.151,546.398 302.818,552.398 296,556.5C 291.751,553.421 287.917,549.754 284.5,545.5C 287.857,539.598 289.191,533.265 288.5,526.5 Z"/></g>
<g><path style="opacity:1" fill="#70c3dd" d="M 580.5,544.5 C 578.952,544.179 578.285,543.179 578.5,541.5C 603.212,539.161 627.879,536.328 652.5,533C 657.202,532.172 661.869,532.338 666.5,533.5C 637.654,536.689 608.987,540.355 580.5,544.5 Z"/></g>
<g><path style="opacity:1" fill="#6dbfdb" d="M 580.5,544.5 C 610.206,544.286 639.539,541.119 668.5,535C 671.333,533.5 673.5,531.333 675,528.5C 676.309,520.791 677.809,513.124 679.5,505.5C 680.307,514.37 679.141,523.037 676,531.5C 674.235,534.473 671.735,536.64 668.5,538C 630.472,544.773 592.138,548.106 553.5,548C 554.5,547.667 555.5,547.333 556.5,547C 564.651,546.163 572.651,545.33 580.5,544.5 Z"/></g>
<g><path style="opacity:1" fill="#6cbedb" d="M 684.5,511.5 C 685.234,512.708 685.567,514.041 685.5,515.5C 684.834,528.489 684.5,541.489 684.5,554.5C 684.167,554.5 683.833,554.5 683.5,554.5C 683.83,547.8 683.497,541.134 682.5,534.5C 678.66,539.93 673.327,543.096 666.5,544C 632.604,548.153 598.604,551.486 564.5,554C 547.296,554.273 547.296,553.273 564.5,551C 600.728,549.486 636.728,545.819 672.5,540C 675.281,538.553 677.781,536.72 680,534.5C 681.685,526.589 682.852,518.589 683.5,510.5C 684.107,510.624 684.44,510.957 684.5,511.5 Z"/></g>
<g><path style="opacity:1" fill="#67a4d5" d="M 772.5,520.5 C 772.717,526.232 772.217,531.899 771,537.5C 770.097,538.701 768.931,539.535 767.5,540C 742.537,546.158 717.537,552.158 692.5,558C 689.833,558.667 687.167,558.667 684.5,558C 683.663,556.989 683.33,555.822 683.5,554.5C 683.833,554.5 684.167,554.5 684.5,554.5C 685.694,555.777 687.36,556.444 689.5,556.5C 715.61,550.869 741.61,544.703 767.5,538C 768.893,536.829 769.727,535.329 770,533.5C 770.76,529.012 771.594,524.678 772.5,520.5 Z"/></g>
</svg>
